<svg width="16" height="16" viewBox="0 0 16 16" fill="none" xmlns="http://www.w3.org/2000/svg">
<path fill-rule="evenodd" clip-rule="evenodd" d="M14.1532 5.49644L14.7073 6.05029C15.1459 6.48106 15.3844 7.06568 15.3844 7.68106C15.3921 8.29644 15.1536 8.88183 14.7227 9.31952C14.7175 9.32516 14.7124 9.33012 14.7073 9.33507C14.7047 9.33755 14.7021 9.34003 14.6996 9.3426L14.1532 9.88875C13.9378 10.1041 13.8146 10.3964 13.8146 10.7049V11.4964C13.8146 12.7734 12.7758 13.8126 11.4984 13.8126H10.7058C10.398 13.8126 10.1056 13.9349 9.89014 14.1503L9.33609 14.7041C8.88208 15.1588 8.28956 15.3811 7.69703 15.3811C7.10451 15.3811 6.51199 15.1588 6.05798 14.7126L5.49624 14.1503C5.28077 13.9349 4.98836 13.8126 4.68056 13.8126H3.88796C2.61057 13.8126 1.57174 12.7734 1.57174 11.4964V10.7049C1.57174 10.3964 1.44861 10.1041 1.23315 9.88106L0.679105 9.33491C-0.221222 8.43568 -0.228917 6.96568 0.67141 6.05875L1.23315 5.49644C1.44861 5.28106 1.57174 4.98875 1.57174 4.67337V3.88875C1.57174 2.61183 2.61057 1.57414 3.88796 1.57414H4.68056C4.98836 1.57414 5.28077 1.45029 5.49624 1.23491L6.05028 0.68106C6.95061 -0.225863 8.42037 -0.225863 9.32839 0.674137L9.89014 1.23491C10.1056 1.45029 10.398 1.57414 10.7058 1.57414H11.4984C12.7758 1.57414 13.8146 2.61183 13.8146 3.88875V4.68183C13.8146 4.98875 13.9378 5.28106 14.1532 5.49644ZM5.7117 10.3426C5.89638 10.3426 6.06567 10.2734 6.18879 10.1426L10.1441 6.18952C10.4057 5.92798 10.4057 5.49644 10.1441 5.23491C9.88244 4.97414 9.45921 4.97414 9.19758 5.23491L5.2423 9.18875C4.98066 9.45029 4.98066 9.88106 5.2423 10.1426C5.36542 10.2734 5.53471 10.3426 5.7117 10.3426ZM8.99751 9.66568C8.99751 10.0426 9.29761 10.3426 9.67467 10.3426C10.044 10.3426 10.3441 10.0426 10.3441 9.66568C10.3441 9.29721 10.044 8.99644 9.67467 8.99644C9.29761 8.99644 8.99751 9.29721 8.99751 9.66568ZM5.71939 5.0426C6.08876 5.0426 6.38887 5.3426 6.38887 5.71183C6.38887 6.08952 6.08876 6.38875 5.71939 6.38875C5.35003 6.38875 5.04223 6.08952 5.04223 5.71183C5.04223 5.3426 5.35003 5.0426 5.71939 5.0426Z" fill="white"/>
</svg>
