<svg width="16" height="16" viewBox="0 0 16 16" fill="none" xmlns="http://www.w3.org/2000/svg">
<path d="M15.8444 6.4332H15.2V6.4H8V9.6H12.5212C11.8616 11.4628 10.0892 12.8 8 12.8C5.3492 12.8 3.2 10.6508 3.2 8C3.2 5.3492 5.3492 3.2 8 3.2C9.2236 3.2 10.3368 3.6616 11.1844 4.4156L13.4472 2.1528C12.0184 0.8212 10.1072 0 8 0C3.582 0 0 3.582 0 8C0 12.418 3.582 16 8 16C12.418 16 16 12.418 16 8C16 7.4636 15.9448 6.94 15.8444 6.4332Z" fill="#FFC107"/>
<path d="M0.921082 4.2764L3.54948 6.204C4.26068 4.4432 5.98308 3.2 7.99868 3.2C9.22228 3.2 10.3355 3.6616 11.1831 4.4156L13.4459 2.1528C12.0171 0.8212 10.1059 0 7.99868 0C4.92588 0 2.26108 1.7348 0.921082 4.2764Z" fill="#FF3D00"/>
<path d="M7.99859 15.9995C10.065 15.9995 11.9426 15.2087 13.3622 13.9227L10.8862 11.8275C10.056 12.4588 9.04157 12.8003 7.99859 12.7995C5.91779 12.7995 4.15099 11.4727 3.48539 9.62109L0.876587 11.6311C2.20059 14.2219 4.88939 15.9995 7.99859 15.9995Z" fill="#4CAF50"/>
<path d="M15.8436 6.43164H15.1992V6.39844H7.99921V9.59844H12.5204C12.2049 10.485 11.6365 11.2597 10.8856 11.8268L10.8868 11.826L13.3628 13.9212C13.1876 14.0804 15.9992 11.9984 15.9992 7.99844C15.9992 7.46204 15.944 6.93844 15.8436 6.43164Z" fill="#1976D2"/>
</svg>
