<svg width="88" height="88" viewBox="0 0 88 88" fill="none" xmlns="http://www.w3.org/2000/svg">
<g filter="url(#filter0_d_400_5495)">
<rect x="20" y="15.5898" width="48" height="48" rx="11.7647" fill="white"/>
</g>
<path fill-rule="evenodd" clip-rule="evenodd" d="M37.6577 30.2332C34.6445 30.2332 34.6445 30.4611 34.6445 33.2464V33.2737C34.6445 34.4867 34.6445 35.3632 34.9415 35.7336C35.2318 36.093 36.0941 36.2595 37.6577 36.2595C39.2212 36.2595 40.0835 36.0919 40.3739 35.7325C40.6708 35.3632 40.6708 34.4867 40.6708 33.2727C40.6708 30.4611 40.6708 30.2332 37.6577 30.2332ZM37.6577 37.9032C35.8103 37.9032 34.4243 37.7093 33.6628 36.7637C33.001 35.943 33.001 34.8232 33.001 33.2739L33.8227 33.2465H33.001C33.001 30.1019 33.1993 28.5898 37.6577 28.5898C42.116 28.5898 42.3144 30.1019 42.3144 33.2465C42.3144 34.8221 42.3144 35.943 41.6526 36.7637C40.891 37.7093 39.505 37.9032 37.6577 37.9032Z" fill="black"/>
<path fill-rule="evenodd" clip-rule="evenodd" d="M49.7104 30.2332C46.6973 30.2332 46.6973 30.4611 46.6973 33.2464V33.2737C46.6973 34.4867 46.6973 35.3632 46.9942 35.7336C47.2846 36.093 48.1469 36.2595 49.7104 36.2595C51.274 36.2595 52.1363 36.0919 52.4267 35.7325C52.7236 35.3632 52.7236 34.4867 52.7236 33.2727C52.7236 30.4611 52.7236 30.2332 49.7104 30.2332ZM49.7104 37.9032C47.8631 37.9032 46.477 37.7093 45.7155 36.7637C45.0537 35.943 45.0537 34.8232 45.0537 33.2739L45.8755 33.2465H45.0537C45.0537 30.1019 45.252 28.5898 49.7104 28.5898C54.1688 28.5898 54.3671 30.1019 54.3671 33.2465C54.3671 34.8221 54.3671 35.943 53.7053 36.7637C52.9438 37.7093 51.5577 37.9032 49.7104 37.9032Z" fill="black"/>
<path fill-rule="evenodd" clip-rule="evenodd" d="M37.6577 42.2848C34.6445 42.2848 34.6445 42.5127 34.6445 45.2979V45.3253C34.6445 46.5383 34.6445 47.4148 34.9415 47.7852C35.2318 48.1445 36.0941 48.3111 37.6577 48.3111C39.2212 48.3111 40.0835 48.1434 40.3739 47.7841C40.6708 47.4148 40.6708 46.5383 40.6708 45.3242C40.6708 42.5127 40.6708 42.2848 37.6577 42.2848ZM37.6577 49.956C35.8103 49.956 34.4243 49.762 33.6628 48.8164C33.001 47.9958 33.001 46.876 33.001 45.3267L33.8227 45.2993H33.001C33.001 42.1546 33.1993 40.6426 37.6577 40.6426C42.116 40.6426 42.3144 42.1546 42.3144 45.2993C42.3144 46.8749 42.3144 47.9958 41.6526 48.8164C40.891 49.762 39.505 49.956 37.6577 49.956Z" fill="black"/>
<path fill-rule="evenodd" clip-rule="evenodd" d="M49.7104 42.2848C46.6973 42.2848 46.6973 42.5127 46.6973 45.2979V45.3253C46.6973 46.5383 46.6973 47.4148 46.9942 47.7852C47.2846 48.1445 48.1469 48.3111 49.7104 48.3111C51.274 48.3111 52.1363 48.1434 52.4267 47.7841C52.7236 47.4148 52.7236 46.5383 52.7236 45.3242C52.7236 42.5127 52.7236 42.2848 49.7104 42.2848ZM49.7104 49.956C47.8631 49.956 46.477 49.762 45.7155 48.8164C45.0537 47.9958 45.0537 46.876 45.0537 45.3267L45.8755 45.2993H45.0537C45.0537 42.1546 45.252 40.6426 49.7104 40.6426C54.1688 40.6426 54.3671 42.1546 54.3671 45.2993C54.3671 46.8749 54.3671 47.9958 53.7053 48.8164C52.9438 49.762 51.5577 49.956 49.7104 49.956Z" fill="black"/>
<defs>
<filter id="filter0_d_400_5495" x="0" y="-0.000156403" width="88" height="88" filterUnits="userSpaceOnUse" color-interpolation-filters="sRGB">
<feFlood flood-opacity="0" result="BackgroundImageFix"/>
<feColorMatrix in="SourceAlpha" type="matrix" values="0 0 0 0 0 0 0 0 0 0 0 0 0 0 0 0 0 0 127 0" result="hardAlpha"/>
<feOffset dy="4.41"/>
<feGaussianBlur stdDeviation="10"/>
<feColorMatrix type="matrix" values="0 0 0 0 0.921569 0 0 0 0 0.415686 0 0 0 0 0.345098 0 0 0 0.14 0"/>
<feBlend mode="normal" in2="BackgroundImageFix" result="effect1_dropShadow_400_5495"/>
<feBlend mode="normal" in="SourceGraphic" in2="effect1_dropShadow_400_5495" result="shape"/>
</filter>
</defs>
</svg>
