<svg width="22" height="22" viewBox="0 0 22 22" fill="none" xmlns="http://www.w3.org/2000/svg">
<path fill-rule="evenodd" clip-rule="evenodd" d="M4.65671 1.64336C1.64356 1.64336 1.64356 1.87126 1.64356 4.65651V4.6839C1.64356 5.89683 1.64356 6.77339 1.94049 7.14373C2.23085 7.50312 3.09316 7.66966 4.65671 7.66966C6.22026 7.66966 7.08257 7.50202 7.37293 7.14263C7.66986 6.77339 7.66986 5.89683 7.66986 4.68281C7.66986 1.87126 7.66986 1.64336 4.65671 1.64336ZM4.65669 9.31338C2.80935 9.31338 1.4233 9.11944 0.661798 8.17386C0 7.35318 0 6.23339 0 4.68408L0.821769 4.65669H0C0 1.51205 0.19832 0 4.65669 0C9.11506 0 9.31338 1.51205 9.31338 4.65669C9.31338 6.23229 9.31338 7.35318 8.65158 8.17386C7.89007 9.11944 6.50402 9.31338 4.65669 9.31338Z" fill="black"/>
<path fill-rule="evenodd" clip-rule="evenodd" d="M16.7095 1.64336C13.6963 1.64336 13.6963 1.87126 13.6963 4.65651V4.6839C13.6963 5.89683 13.6963 6.77339 13.9932 7.14373C14.2836 7.50312 15.1459 7.66966 16.7095 7.66966C18.273 7.66966 19.1353 7.50202 19.4257 7.14263C19.7226 6.77339 19.7226 5.89683 19.7226 4.68281C19.7226 1.87126 19.7226 1.64336 16.7095 1.64336ZM16.7094 9.31338C14.8621 9.31338 13.476 9.11944 12.7145 8.17386C12.0527 7.35318 12.0527 6.23339 12.0527 4.68408L12.8745 4.65669H12.0527C12.0527 1.51205 12.2511 0 16.7094 0C21.1678 0 21.3661 1.51205 21.3661 4.65669C21.3661 6.23229 21.3661 7.35318 20.7043 8.17386C19.9428 9.11944 18.5568 9.31338 16.7094 9.31338Z" fill="black"/>
<path fill-rule="evenodd" clip-rule="evenodd" d="M4.65671 13.6949C1.64356 13.6949 1.64356 13.9228 1.64356 16.7081V16.7355C1.64356 17.9484 1.64356 18.825 1.94049 19.1953C2.23085 19.5547 3.09316 19.7212 4.65671 19.7212C6.22026 19.7212 7.08257 19.5536 7.37293 19.1942C7.66986 18.825 7.66986 17.9484 7.66986 16.7344C7.66986 13.9228 7.66986 13.6949 4.65671 13.6949ZM4.65669 21.3661C2.80935 21.3661 1.4233 21.1722 0.661798 20.2266C0 19.4059 0 18.2861 0 16.7368L0.821769 16.7094H0C0 13.5648 0.19832 12.0527 4.65669 12.0527C9.11506 12.0527 9.31338 13.5648 9.31338 16.7094C9.31338 18.285 9.31338 19.4059 8.65158 20.2266C7.89007 21.1722 6.50402 21.3661 4.65669 21.3661Z" fill="black"/>
<path fill-rule="evenodd" clip-rule="evenodd" d="M16.7095 13.6949C13.6963 13.6949 13.6963 13.9228 13.6963 16.7081V16.7355C13.6963 17.9484 13.6963 18.825 13.9932 19.1953C14.2836 19.5547 15.1459 19.7212 16.7095 19.7212C18.273 19.7212 19.1353 19.5536 19.4257 19.1942C19.7226 18.825 19.7226 17.9484 19.7226 16.7344C19.7226 13.9228 19.7226 13.6949 16.7095 13.6949ZM16.7094 21.3661C14.8621 21.3661 13.476 21.1722 12.7145 20.2266C12.0527 19.4059 12.0527 18.2861 12.0527 16.7368L12.8745 16.7094H12.0527C12.0527 13.5648 12.2511 12.0527 16.7094 12.0527C21.1678 12.0527 21.3661 13.5648 21.3661 16.7094C21.3661 18.285 21.3661 19.4059 20.7043 20.2266C19.9428 21.1722 18.5568 21.3661 16.7094 21.3661Z" fill="black"/>
</svg>
