<svg width="277" height="219" viewBox="0 0 277 219" fill="none" xmlns="http://www.w3.org/2000/svg">
<path d="M87.2927 106.336C86.6058 106.336 85.9345 106.131 85.3643 105.748C37.4493 73.4936 28.162 42.4842 27.7556 41.1784C27.5379 40.3073 27.6674 39.3857 28.1169 38.6084C28.5663 37.8311 29.3004 37.2591 30.1639 37.0131C31.0275 36.7672 31.9528 36.8667 32.7443 37.2906C33.5358 37.7145 34.1315 38.4296 34.4054 39.2846C34.4919 39.57 43.5889 69.3083 89.1951 100.006C89.8109 100.42 90.2774 101.021 90.5256 101.72C90.7737 102.42 90.7905 103.18 90.5734 103.89C90.3563 104.599 89.9168 105.22 89.3199 105.66C88.7229 106.101 88.0001 106.338 87.2581 106.336H87.2927Z" fill="#231F20"/>
<path d="M208.001 102.29C190.127 102.29 162.438 79.5989 158.91 76.6329C158.509 76.361 158.168 76.0077 157.912 75.5959C157.656 75.184 157.489 74.7228 157.422 74.2423C157.356 73.7618 157.391 73.2726 157.526 72.8066C157.661 72.3406 157.892 71.9082 158.205 71.5374C158.518 71.1667 158.905 70.8659 159.342 70.6545C159.778 70.4432 160.255 70.3261 160.74 70.3108C161.224 70.2955 161.707 70.3824 162.156 70.5658C162.605 70.7491 163.011 71.025 163.346 71.3753C169.845 76.6858 176.682 81.5675 183.815 85.9893C197.063 94.0746 207.344 97.2309 212.014 94.5502C222.347 88.696 221.768 64.8811 220.661 56.1991C220.604 55.7483 220.637 55.2907 220.757 54.8525C220.877 54.4142 221.082 54.0039 221.361 53.645C221.64 53.2861 221.986 52.9855 222.381 52.7605C222.776 52.5356 223.211 52.3905 223.662 52.3338C224.113 52.277 224.57 52.3096 225.008 52.4296C225.447 52.5497 225.857 52.7549 226.216 53.0335C226.575 53.3122 226.875 53.6588 227.1 54.0536C227.325 54.4483 227.47 54.8836 227.527 55.3344C228.2 61.4802 228.301 67.6752 227.83 73.8398C226.706 87.5458 222.529 96.5391 215.412 100.569C213.134 101.779 210.579 102.372 208.001 102.29Z" fill="#231F20"/>
<path d="M70.2574 176.32C69.34 176.328 68.4571 175.972 67.8027 175.329C67.1484 174.686 66.7762 173.809 66.7682 172.892C66.7602 171.974 67.1169 171.091 67.7599 170.437C68.4029 169.783 69.2795 169.41 70.1969 169.402C80.7207 169.204 88.832 166.065 94.3144 160.046C103.472 149.998 102.478 135.193 102.469 135.046C102.435 134.592 102.491 134.136 102.633 133.703C102.775 133.27 103.001 132.87 103.299 132.525C103.596 132.179 103.958 131.896 104.364 131.691C104.771 131.485 105.214 131.362 105.668 131.328C106.123 131.294 106.579 131.35 107.012 131.492C107.445 131.634 107.845 131.861 108.19 132.158C108.536 132.455 108.819 132.817 109.024 133.224C109.229 133.63 109.353 134.073 109.387 134.528C109.439 135.254 110.589 152.471 99.4423 164.707C92.6368 172.178 82.8393 176.087 70.3352 176.32H70.2574Z" fill="#231F20"/>
<path d="M200.573 169.142C199.788 169.142 199.027 168.875 198.414 168.384C197.801 167.894 197.373 167.21 197.201 166.444C191.468 141.09 156.031 140.269 155.693 140.26C155.239 140.253 154.791 140.157 154.374 139.977C153.957 139.797 153.579 139.536 153.263 139.21C152.624 138.552 152.273 137.667 152.286 136.749C152.3 135.832 152.678 134.958 153.336 134.319C153.994 133.68 154.88 133.328 155.797 133.342C162.998 133.642 170.116 135 176.923 137.372C191.727 142.604 201.075 152.133 203.963 164.922C204.165 165.814 204.005 166.75 203.519 167.525C203.033 168.299 202.26 168.85 201.369 169.056C201.108 169.117 200.841 169.146 200.573 169.142Z" fill="#231F20"/>
<path d="M136.617 218.683C159.556 218.683 178.151 215.737 178.151 212.102C178.151 208.468 159.556 205.521 136.617 205.521C113.679 205.521 95.084 208.468 95.084 212.102C95.084 215.737 113.679 218.683 136.617 218.683Z" fill="#E6E7E8"/>
<path d="M132.596 152.686C163.854 152.686 189.193 127.347 189.193 96.0892C189.193 64.8316 163.854 39.4922 132.596 39.4922C101.339 39.4922 75.9993 64.8316 75.9993 96.0892C75.9993 127.347 101.339 152.686 132.596 152.686Z" fill="#E7F7E3"/>
<path d="M132.596 39.4942C143.791 39.4925 154.734 42.8104 164.042 49.0283C173.351 55.2462 180.606 64.0849 184.891 74.4265C189.176 84.7681 190.298 96.1481 188.116 107.127C185.933 118.107 180.543 128.192 172.628 136.108C164.713 144.024 154.629 149.416 143.65 151.6C132.671 153.785 121.291 152.664 110.948 148.381C100.606 144.097 91.7663 136.843 85.5469 127.536C79.3276 118.228 76.008 107.285 76.008 96.0912C76.008 81.0823 81.9697 66.6879 92.5818 56.0741C103.194 45.4604 117.587 39.4965 132.596 39.4942ZM132.596 38.6295C121.226 38.6295 110.112 42.0011 100.658 48.3179C91.2041 54.6347 83.8358 63.6131 79.4847 74.1176C75.1336 84.6221 73.9951 96.1809 76.2133 107.332C78.4315 118.484 83.9066 128.727 91.9464 136.767C99.9862 144.807 110.23 150.282 121.381 152.5C132.533 154.718 144.091 153.58 154.596 149.229C165.1 144.878 174.079 137.509 180.396 128.056C186.713 118.602 190.084 107.487 190.084 96.1172C190.073 80.8716 184.013 66.2534 173.235 55.4707C162.457 44.688 147.842 38.6218 132.596 38.6035V38.6295Z" fill="#231F20"/>
<path d="M118.467 82.9272C118.123 82.9272 117.793 82.7905 117.549 82.5473C117.306 82.304 117.17 81.9741 117.17 81.6301C117.17 75.992 115.241 72.2563 113.97 72.2563C112.699 72.2563 110.77 75.992 110.77 81.6301C110.77 81.9741 110.634 82.304 110.391 82.5473C110.147 82.7905 109.817 82.9272 109.473 82.9272C109.129 82.9272 108.799 82.7905 108.556 82.5473C108.313 82.304 108.176 81.9741 108.176 81.6301C108.176 75.8277 110.208 69.6621 113.97 69.6621C117.732 69.6621 119.764 75.8277 119.764 81.6301C119.764 81.9741 119.627 82.304 119.384 82.5473C119.141 82.7905 118.811 82.9272 118.467 82.9272Z" fill="#231F20"/>
<path d="M155.737 82.9272C155.393 82.9272 155.063 82.7905 154.819 82.5473C154.576 82.304 154.44 81.9741 154.44 81.6301C154.44 75.992 152.511 72.2563 151.24 72.2563C149.969 72.2563 148.041 75.992 148.041 81.6301C148.041 81.9741 147.904 82.304 147.661 82.5473C147.417 82.7905 147.087 82.9272 146.743 82.9272C146.399 82.9272 146.069 82.7905 145.826 82.5473C145.583 82.304 145.446 81.9741 145.446 81.6301C145.446 75.8277 147.478 69.6621 151.24 69.6621C155.002 69.6621 157.034 75.8277 157.034 81.6301C157.034 81.9741 156.897 82.304 156.654 82.5473C156.411 82.7905 156.081 82.9272 155.737 82.9272Z" fill="#231F20"/>
<path d="M164.125 107.945C164.125 121.141 150.012 131.829 132.596 131.829C115.181 131.829 101.068 121.141 101.068 107.945H164.125Z" fill="#231F20"/>
<path d="M214.703 68.3394C210.855 66.0132 208.477 57.3659 209.117 52.6185C209.757 47.8711 212.092 48.5456 214.66 48.0959C214.392 46.1502 214.184 43.9624 215.412 42.4319C216.088 41.6559 216.947 41.0613 217.911 40.7024C223.264 38.4257 229.289 38.3018 234.73 40.3565C235.772 40.6947 236.712 41.2894 237.463 42.086C238.079 42.9251 238.49 43.8963 238.665 44.9223C240.887 54.5728 236.131 60.8508 235.007 69.87L224.129 69.109C221.699 68.9447 216.934 69.5846 214.798 68.374C214.765 68.3671 214.733 68.3554 214.703 68.3394Z" fill="white"/>
<path d="M235.007 70.3378L224.129 69.5855C223.437 69.5336 222.512 69.5855 221.535 69.5855C219.053 69.646 216.234 69.7065 214.617 68.7985L214.504 68.738C210.293 66.1438 208.088 57.1765 208.702 52.5761C209.29 48.2524 211.296 48.0449 213.415 47.82L214.193 47.7336C213.942 45.7274 213.873 43.6952 215.101 42.156C215.827 41.3407 216.746 40.7195 217.773 40.3487C223.23 38.0129 229.381 37.8858 234.929 39.9942C236.042 40.3503 237.045 40.9842 237.844 41.836C238.504 42.73 238.946 43.7667 239.132 44.8626C240.585 51.1666 239.132 56.0004 237.584 61.1197C236.629 63.9992 235.926 66.9562 235.483 69.9573C235.468 70.0697 235.41 70.172 235.321 70.2428C235.233 70.3137 235.12 70.3477 235.007 70.3378ZM223.048 68.6602C223.446 68.6602 223.826 68.6602 224.155 68.6602L234.618 69.3866C235.078 66.4789 235.772 63.6131 236.693 60.817C238.207 55.8188 239.634 51.0974 238.224 45.0183C238.066 44.0595 237.687 43.1507 237.117 42.3635C236.414 41.634 235.54 41.0903 234.575 40.7811C229.244 38.7575 223.337 38.8783 218.093 41.1183C217.204 41.4471 216.404 41.9803 215.758 42.6748C214.66 44.0411 214.833 46.056 215.101 48.0016C215.118 48.1162 215.09 48.233 215.022 48.3269C214.954 48.4207 214.852 48.484 214.738 48.5032C214.305 48.5723 213.873 48.6242 213.475 48.6675C211.486 48.875 210.016 49.022 209.558 52.6453C208.901 57.5051 211.391 65.7806 214.928 67.9252L215.015 67.977C216.415 68.7726 219.217 68.7034 221.474 68.6515L223.048 68.6602Z" fill="#231F20"/>
<path d="M213.96 72.4268L237.04 71.7344C238.945 71.6772 240.444 70.0861 240.387 68.1806L240.373 67.7223C240.316 65.8167 238.725 64.3183 236.819 64.3755L213.739 65.0678C211.834 65.125 210.335 66.7161 210.393 68.6217L210.406 69.08C210.463 70.9855 212.055 72.4839 213.96 72.4268Z" fill="white"/>
<path d="M213.804 73.4677C212.795 73.4638 211.826 73.0688 211.102 72.3657C210.378 71.6626 209.955 70.7061 209.921 69.6974V69.2391C209.888 68.2061 210.267 67.2024 210.974 66.4484C211.681 65.6945 212.658 65.252 213.691 65.2181L236.763 64.4831C237.274 64.4643 237.784 64.5471 238.264 64.7267C238.743 64.9063 239.182 65.1791 239.556 65.5294C240.307 66.2374 240.748 67.2132 240.784 68.2447V68.7116C240.801 69.2223 240.717 69.7313 240.537 70.2096C240.358 70.6879 240.085 71.1259 239.736 71.4987C239.386 71.8714 238.967 72.1716 238.501 72.3818C238.035 72.5921 237.533 72.7084 237.022 72.724L213.942 73.4677H213.804ZM213.7 66.1088C212.905 66.1359 212.153 66.4768 211.608 67.0569C211.064 67.6371 210.771 68.4092 210.795 69.2045V69.6715C210.807 70.0656 210.897 70.4534 211.059 70.8128C211.221 71.1722 211.453 71.496 211.74 71.7659C212.028 72.0357 212.366 72.2462 212.735 72.3854C213.103 72.5246 213.496 72.5897 213.89 72.577L236.97 71.8333C237.364 71.8222 237.752 71.7331 238.112 71.5711C238.471 71.4091 238.795 71.1775 239.064 70.8896C239.334 70.6017 239.543 70.2633 239.681 69.894C239.819 69.5246 239.882 69.1315 239.867 68.7376V68.2793C239.84 67.4841 239.499 66.732 238.919 66.1875C238.339 65.643 237.567 65.3504 236.771 65.3738L213.691 66.1088H213.7Z" fill="#231F20"/>
<path d="M94.1848 97.6886C97.9864 97.6886 101.068 95.7296 101.068 93.3131C101.068 90.8965 97.9864 88.9375 94.1848 88.9375C90.3833 88.9375 87.3015 90.8965 87.3015 93.3131C87.3015 95.7296 90.3833 97.6886 94.1848 97.6886Z" fill="white"/>
<path d="M171.017 97.6886C174.818 97.6886 177.9 95.7296 177.9 93.3131C177.9 90.8965 174.818 88.9375 171.017 88.9375C167.215 88.9375 164.133 90.8965 164.133 93.3131C164.133 95.7296 167.215 97.6886 171.017 97.6886Z" fill="white"/>
<path d="M214.66 48.0971C214.66 48.0971 229.542 45.9958 228.037 50.0947C226.533 54.1935 215.871 56.3813 215.871 56.3813C215.871 56.3813 225.383 53.7871 227.614 60.9385" fill="white"/>
<path d="M227.614 61.3781C227.519 61.3786 227.427 61.3485 227.35 61.2925C227.274 61.2364 227.218 61.1573 227.19 61.0668C226.325 58.2996 224.207 56.7431 220.886 56.4231C219.469 56.3067 218.043 56.3882 216.649 56.6653L215.957 56.8209C215.85 56.8302 215.743 56.8006 215.656 56.7377C215.568 56.6747 215.506 56.5825 215.481 56.4779C215.456 56.3732 215.469 56.263 215.519 56.1672C215.568 56.0715 215.65 55.9966 215.75 55.9562L216.32 55.8351C218.482 55.3249 226.412 53.2409 227.622 49.9463C227.697 49.8102 227.728 49.6548 227.713 49.5005C227.697 49.3462 227.636 49.2002 227.536 49.0815C226.282 47.5337 219.01 47.9141 214.721 48.5195C214.66 48.537 214.596 48.5412 214.534 48.532C214.471 48.5227 214.411 48.5001 214.358 48.4657C214.305 48.4314 214.26 48.386 214.226 48.3327C214.192 48.2794 214.17 48.2194 214.161 48.1569C214.153 48.0943 214.158 48.0306 214.176 47.97C214.194 47.9094 214.224 47.8535 214.266 47.8058C214.307 47.7582 214.359 47.7201 214.416 47.694C214.474 47.6679 214.536 47.6545 214.599 47.6547C215.784 47.4818 226.247 46.0895 228.228 48.5195C228.422 48.7586 228.546 49.0464 228.587 49.3514C228.628 49.6565 228.585 49.967 228.461 50.2489C227.596 52.6875 223.8 54.4429 220.627 55.5238C223.506 55.7227 226.818 56.8642 228.037 60.7987C228.056 60.8543 228.064 60.9131 228.06 60.9717C228.055 61.0303 228.04 61.0874 228.013 61.1398C227.986 61.1921 227.95 61.2386 227.905 61.2766C227.86 61.3145 227.808 61.3432 227.752 61.3608C227.707 61.3745 227.661 61.3803 227.614 61.3781Z" fill="#231F20"/>
<path d="M50.2993 52.351C52.7119 48.5548 50.9911 39.7518 48.3018 35.7826C45.6124 31.8135 43.8138 33.4392 41.3147 34.1915C40.7267 32.315 39.9052 30.2656 38.1325 29.4355C37.1817 29.0641 36.1546 28.9305 35.1405 29.0463C29.3351 29.3905 23.8864 31.9616 19.9297 36.2236C19.1442 36.9829 18.564 37.929 18.2435 38.9735C18.0648 40.0004 18.1299 41.0549 18.4338 42.052C20.734 51.6765 27.7556 55.1787 32.8143 62.7278L42.214 57.2108C44.3153 55.9742 48.8638 54.4264 50.2388 52.3942L50.2993 52.351Z" fill="white"/>
<path d="M32.8143 63.2033C32.7406 63.2039 32.668 63.1859 32.6031 63.1512C32.5381 63.1165 32.4829 63.066 32.4425 63.0044C30.7079 60.5145 28.7607 58.1796 26.6228 56.026C22.9563 52.126 19.506 48.4509 17.9754 42.1902C17.6578 41.1275 17.5926 40.0052 17.7852 38.9129C18.1216 37.7773 18.7438 36.747 19.5925 35.9209C23.6229 31.5666 29.1826 28.9417 35.1059 28.5965C36.1916 28.4813 37.2892 28.6296 38.3054 29.0289C40.0954 29.8937 40.8996 31.7182 41.6 33.6207L42.3351 33.3526C44.3412 32.6089 46.2264 31.8998 48.6736 35.5058C51.2678 39.3539 53.3086 48.4077 50.6798 52.5584L50.6106 52.6708C49.5729 54.2014 47.0219 55.3947 44.765 56.4584C43.9002 56.8734 43.0355 57.2626 42.4388 57.6171L33.0391 63.1428C32.9715 63.184 32.8935 63.205 32.8143 63.2033ZM35.8582 29.4786H35.1577C29.4651 29.8158 24.1233 32.3411 20.2497 36.5262C19.5148 37.2445 18.9734 38.1368 18.6759 39.1204C18.5226 40.0737 18.5876 41.0495 18.8661 41.974C20.3189 48.0272 23.6913 51.6331 27.2713 55.438C29.3408 57.5205 31.2379 59.7676 32.944 62.157L41.9892 56.8475C42.6291 56.4757 43.4852 56.0692 44.3931 55.6455C46.4339 54.6857 48.9676 53.501 49.8756 52.1866L49.9274 52.1001C52.1412 48.6411 50.6798 40.0803 47.9299 36.0246C45.9151 32.9808 44.5315 33.491 42.655 34.1914C42.2659 34.3384 41.8595 34.4854 41.4444 34.6151C41.3331 34.6482 41.2134 34.6369 41.1103 34.5837C41.0071 34.5305 40.9285 34.4395 40.8909 34.3298C40.2683 32.4619 39.5247 30.5768 37.9335 29.8677C37.278 29.5887 36.5704 29.4531 35.8582 29.4699V29.4786Z" fill="#231F20"/>
<path d="M50.0094 49.487L29.026 59.0983C27.2936 59.8919 26.5325 61.9396 27.326 63.672L27.5169 64.0887C28.3104 65.8212 30.3581 66.5823 32.0906 65.7888L53.0739 56.1774C54.8064 55.3839 55.5675 53.3361 54.774 51.6037L54.5831 51.187C53.7896 49.4546 51.7418 48.6934 50.0094 49.487Z" fill="white"/>
<path d="M30.6611 66.5422C30.1972 66.5402 29.7374 66.4553 29.3034 66.2914C28.8223 66.117 28.3809 65.8481 28.0052 65.5006C27.6295 65.1531 27.327 64.734 27.1156 64.2679L26.9254 63.8442C26.7092 63.3777 26.5873 62.8731 26.5668 62.3594C26.5463 61.8456 26.6276 61.3329 26.8061 60.8507C26.9845 60.3685 27.2565 59.9263 27.6064 59.5497C27.9564 59.173 28.3773 58.8692 28.8451 58.6558L49.8323 49.0659C50.2989 48.8508 50.8034 48.7299 51.3169 48.71C51.8303 48.6901 52.3426 48.7716 52.8246 48.9499C53.3065 49.1282 53.7485 49.3998 54.1253 49.7491C54.5021 50.0984 54.8064 50.5186 55.0207 50.9856L55.2109 51.4093C55.4272 51.8758 55.549 52.3804 55.5695 52.8941C55.59 53.4079 55.5087 53.9206 55.3303 54.4028C55.1519 54.885 54.8799 55.3272 54.5299 55.7039C54.18 56.0806 53.759 56.3843 53.2912 56.5977L32.2781 66.1877C31.7704 66.4194 31.2192 66.5403 30.6611 66.5422ZM51.4148 49.6106C50.9854 49.6112 50.5611 49.7025 50.1695 49.8787L29.217 59.4946C28.8587 59.6587 28.5362 59.8917 28.268 60.1804C27.9998 60.4691 27.791 60.8078 27.6537 61.1772C27.5164 61.5466 27.4532 61.9394 27.4677 62.3332C27.4822 62.727 27.5741 63.1141 27.7383 63.4724L27.9285 63.8961C28.0926 64.2544 28.3256 64.5769 28.6143 64.8451C28.903 65.1133 29.2417 65.322 29.6111 65.4593C29.9805 65.5966 30.3733 65.6599 30.7671 65.6454C31.1609 65.6309 31.548 65.5389 31.9063 65.3748L52.9021 55.7589C53.6226 55.4242 54.1815 54.8181 54.4568 54.073C54.7322 53.3278 54.7018 52.504 54.3722 51.7811L54.1819 51.3574C53.9417 50.8351 53.5564 50.3927 53.0719 50.0831C52.5875 49.7734 52.0243 49.6094 51.4493 49.6106H51.4148Z" fill="#231F20"/>
<path d="M41.3146 34.1914C41.3146 34.1914 27.0638 38.9388 30.2287 41.974C33.3936 45.0093 43.9261 42.1816 43.9261 42.1816C43.9261 42.1816 34.2497 44.0494 35.4431 51.4861" fill="white"/>
<path d="M35.4431 51.8831C35.3377 51.8826 35.2358 51.8452 35.1552 51.7772C35.0745 51.7092 35.0204 51.6151 35.0021 51.5112C34.3449 47.4383 36.8008 44.9392 39.3258 43.4865C36.0052 43.9275 31.8458 44.0313 29.9607 42.2499C29.7275 42.0541 29.552 41.7986 29.453 41.5107C29.354 41.2228 29.3352 40.9133 29.3986 40.6155C30.0818 37.5371 40.0781 34.13 41.2109 33.7495C41.3233 33.7139 41.4452 33.7239 41.5504 33.7772C41.6555 33.8306 41.7355 33.9231 41.773 34.0349C41.792 34.09 41.7999 34.1482 41.7963 34.2064C41.7927 34.2645 41.7775 34.3214 41.7518 34.3736C41.7261 34.4259 41.6903 34.4725 41.6464 34.5109C41.6026 34.5492 41.5515 34.5785 41.4963 34.597C37.3802 35.9633 30.7044 38.8601 30.2547 40.8058C30.2225 40.9535 30.2339 41.1073 30.2877 41.2486C30.3414 41.3899 30.4351 41.5125 30.5574 41.6013C33.1516 44.0226 41.1331 42.345 43.2863 41.8348C43.6322 41.7397 43.8397 41.6965 43.857 41.6965C43.9703 41.6756 44.0872 41.6989 44.1837 41.7616C44.2802 41.8244 44.349 41.9218 44.3759 42.0337C44.39 42.0894 44.393 42.1473 44.3845 42.2041C44.376 42.2609 44.3563 42.3155 44.3265 42.3646C44.2968 42.4137 44.2575 42.4564 44.211 42.4901C44.1646 42.5239 44.1118 42.548 44.0559 42.5612L43.3728 42.7341C42.002 43.1077 40.6895 43.6693 39.4728 44.4031C36.6365 46.1326 35.4345 48.5019 35.9015 51.3729C35.9189 51.4897 35.8897 51.6087 35.8201 51.7042C35.7506 51.7997 35.6462 51.8639 35.5296 51.8831H35.4431Z" fill="#231F20"/>
<path d="M204.447 146.443C204.447 146.443 188.701 150.136 185.086 164.326L205.84 192.923L233.987 153.647L213.233 160.746L204.447 146.443Z" fill="white"/>
<path d="M205.814 193.372C205.743 193.371 205.674 193.355 205.611 193.323C205.548 193.292 205.493 193.246 205.45 193.191L184.697 164.585C184.658 164.532 184.632 164.471 184.62 164.407C184.608 164.343 184.611 164.277 184.628 164.213C188.268 149.928 204.162 146.054 204.326 146.011C204.416 145.988 204.511 145.996 204.597 146.032C204.683 146.067 204.754 146.13 204.802 146.21L213.345 160.21L233.796 153.223C233.886 153.19 233.984 153.187 234.076 153.214C234.167 153.242 234.248 153.298 234.304 153.376C234.361 153.453 234.391 153.546 234.39 153.642C234.389 153.737 234.356 153.83 234.298 153.906L206.151 193.182C206.09 193.303 205.952 193.416 205.814 193.372ZM185.57 164.231L205.814 192.162L232.785 154.52L213.32 161.17C213.223 161.204 213.118 161.204 213.022 161.169C212.925 161.134 212.844 161.067 212.792 160.979L204.24 146.962C202.052 147.567 188.882 151.718 185.57 164.231Z" fill="#231F20"/>
<path d="M206.964 193.986C199.285 187.933 207.725 178.421 215.784 167.664C221.578 159.967 232.318 150.55 237.515 154.623C243.49 159.31 216.087 201.146 206.964 193.986Z" fill="#D1D3D4"/>
<path d="M209.42 195.258C208.431 195.274 207.466 194.951 206.687 194.342C199.311 188.556 206.151 179.589 213.389 170.129L215.404 167.362C220.134 161.084 227.813 153.976 233.511 153.232C234.252 153.1 235.012 153.121 235.744 153.295C236.476 153.469 237.164 153.792 237.766 154.244C238.63 154.935 238.959 156.259 238.682 158.178C237.403 167.215 222.339 190.528 212.144 194.627C211.284 195.007 210.359 195.221 209.42 195.258ZM207.24 193.641C208.382 194.506 209.93 194.601 211.841 193.831C220.981 190.156 236.477 167.561 237.826 158.083C237.982 157.002 238.008 155.575 237.247 154.979C236.74 154.596 236.16 154.322 235.543 154.173C234.925 154.024 234.284 154.004 233.658 154.114C228.47 154.797 220.903 161.568 216.139 167.898L214.098 170.596C206.834 180.108 200.556 188.358 207.24 193.607V193.641Z" fill="#231F20"/>
<path d="M76.3711 182.253L73.258 160.635C64.0502 163.082 54.5767 164.389 45.0503 164.526C45.0503 164.526 40.0435 198.536 42.335 198.649C44.6266 198.761 53.0577 184.173 53.0577 184.173C53.0577 184.173 60.2178 187.251 76.3711 182.253Z" fill="white"/>
<path d="M42.3264 199.089C42.2252 199.083 42.1265 199.055 42.037 199.007C41.9475 198.959 41.8693 198.893 41.8076 198.812C39.9917 196.616 43.8311 169.809 44.618 164.465C44.6307 164.359 44.6819 164.262 44.7616 164.192C44.8414 164.122 44.9441 164.084 45.0504 164.084C54.5428 163.942 63.9829 162.647 73.163 160.228C73.2249 160.208 73.2904 160.202 73.3548 160.211C73.4192 160.22 73.4807 160.244 73.5348 160.28C73.5893 160.313 73.6355 160.359 73.67 160.412C73.7044 160.466 73.7262 160.527 73.7337 160.591L76.8468 182.209C76.8601 182.315 76.8364 182.422 76.7796 182.512C76.7228 182.602 76.6365 182.669 76.5354 182.702C62.25 187.138 54.917 185.296 53.2654 184.743C51.0343 188.513 44.6699 199.089 42.3264 199.089ZM45.4049 164.966C43.1998 180.082 41.4271 196.616 42.4216 198.198C43.8051 197.956 48.6563 190.857 52.6428 183.956C52.6974 183.862 52.7845 183.79 52.888 183.755C52.9914 183.72 53.104 183.724 53.2048 183.766C53.2827 183.766 60.3735 186.68 75.8696 181.941L72.8863 161.188C63.9019 163.501 54.6803 164.769 45.4049 164.966Z" fill="#231F20"/>
<path d="M73.258 160.65C73.258 160.65 70.2573 163.582 70.2573 172.86C70.2573 177.867 73.7163 184.37 76.371 182.252C79.0258 180.133 80.3402 160.642 73.258 160.65Z" fill="#231F20"/>
<path d="M75.3162 183.116C74.9588 183.11 74.6072 183.024 74.2871 182.865C72.0042 181.767 69.8337 176.907 69.8337 172.86C69.8337 163.504 72.843 160.46 72.9727 160.33C73.0593 160.249 73.1743 160.206 73.2927 160.209C75.3248 160.209 76.9073 161.653 77.8758 164.386C79.8733 170.059 78.827 180.868 76.6738 182.597C76.2966 182.925 75.8157 183.109 75.3162 183.116ZM73.4829 161.1C72.9468 161.766 70.7331 164.983 70.7331 172.86C70.7331 176.544 72.6874 181.101 74.6763 182.061C74.9024 182.186 75.1617 182.238 75.4187 182.211C75.6756 182.183 75.9177 182.076 76.1117 181.905C77.651 180.669 79.0951 170.534 77.0283 164.68C76.1809 162.397 75.0049 161.195 73.457 161.1H73.4829Z" fill="#231F20"/>
<path d="M178.151 34.6237C178.063 34.6228 177.977 34.5963 177.905 34.5473C177.832 34.4984 177.775 34.4292 177.741 34.3483C177.707 34.2674 177.697 34.1783 177.713 34.092C177.729 34.0058 177.77 33.926 177.831 33.8627L196.855 14.2678C196.896 14.2257 196.945 14.1922 196.999 14.1694C197.054 14.1465 197.112 14.1348 197.171 14.1348C197.229 14.1348 197.288 14.1465 197.342 14.1694C197.396 14.1922 197.445 14.2257 197.486 14.2678C197.569 14.3519 197.616 14.4653 197.616 14.5834C197.616 14.7015 197.569 14.8149 197.486 14.899L178.462 34.494C178.421 34.5353 178.373 34.5681 178.32 34.5904C178.266 34.6127 178.209 34.624 178.151 34.6237Z" fill="#D1D3D4"/>
<path d="M137.102 24.8266C136.987 24.8245 136.877 24.7785 136.795 24.6981C136.713 24.6177 136.665 24.509 136.661 24.3942L135.675 0.466959C135.673 0.407898 135.682 0.34896 135.702 0.293517C135.723 0.238073 135.754 0.187211 135.794 0.143841C135.834 0.100471 135.883 0.0654424 135.936 0.0407611C135.99 0.0160798 136.048 0.00222855 136.107 5.89713e-07C136.224 -0.000187286 136.337 0.0445227 136.423 0.124939C136.508 0.205356 136.559 0.315369 136.566 0.432369L137.577 24.3596C137.58 24.4783 137.536 24.5933 137.455 24.6804C137.375 24.7675 137.263 24.8199 137.145 24.8266H137.102Z" fill="#D1D3D4"/>
<path d="M82.0611 42.294C81.9997 42.2951 81.9388 42.2834 81.8822 42.2596C81.8256 42.2357 81.7746 42.2003 81.7325 42.1557L58.1252 16.4989C58.0773 16.4575 58.0386 16.4064 58.0118 16.349C57.9849 16.2916 57.9705 16.2292 57.9695 16.1658C57.9685 16.1025 57.9809 16.0396 58.0059 15.9814C58.0309 15.9231 58.0679 15.8708 58.1145 15.8279C58.1611 15.785 58.2163 15.7524 58.2764 15.7323C58.3365 15.7121 58.4001 15.7049 58.4632 15.7111C58.5262 15.7174 58.5873 15.7368 58.6423 15.7683C58.6973 15.7997 58.7451 15.8424 58.7824 15.8936L82.3897 41.5504C82.4726 41.6345 82.5191 41.7479 82.5191 41.866C82.5191 41.9841 82.4726 42.0975 82.3897 42.1816C82.3454 42.2216 82.2934 42.2522 82.237 42.2715C82.1805 42.2909 82.1207 42.2985 82.0611 42.294Z" fill="#D1D3D4"/>
<path d="M0.326153 116.92C0.232191 116.893 0.14953 116.836 0.0906815 116.758C0.0318326 116.68 0 116.585 0 116.487C0 116.39 0.0318326 116.295 0.0906815 116.217C0.14953 116.139 0.232191 116.082 0.326153 116.055L58.4451 112.25C58.5104 112.227 58.5802 112.22 58.649 112.228C58.7177 112.236 58.7836 112.26 58.8416 112.298C58.8995 112.336 58.9478 112.387 58.9828 112.447C59.0178 112.507 59.0386 112.574 59.0434 112.643C59.0482 112.712 59.0371 112.781 59.0107 112.845C58.9844 112.909 58.9436 112.966 58.8915 113.012C58.8395 113.058 58.7776 113.091 58.7106 113.109C58.6437 113.127 58.5735 113.129 58.5057 113.115L0.386685 116.92H0.326153Z" fill="#D1D3D4"/>
<path d="M31.1108 153.128C31.024 153.13 30.9388 153.105 30.8663 153.057C30.7938 153.009 30.7374 152.94 30.7044 152.86C30.658 152.751 30.6565 152.628 30.7002 152.518C30.7439 152.408 30.8293 152.32 30.9378 152.272L54.8046 142.233C54.9097 142.204 55.0216 142.215 55.1195 142.262C55.2174 142.31 55.2946 142.392 55.3369 142.492C55.3791 142.592 55.3835 142.705 55.3493 142.808C55.315 142.911 55.2443 142.999 55.1505 143.054L31.2837 153.094C31.2295 153.118 31.1703 153.13 31.1108 153.128Z" fill="#D1D3D4"/>
<path d="M217.609 114.111C217.505 114.111 217.406 114.074 217.327 114.008C217.248 113.941 217.194 113.85 217.176 113.748C217.165 113.691 217.165 113.632 217.177 113.574C217.189 113.517 217.212 113.463 217.245 113.414C217.278 113.366 217.32 113.325 217.369 113.293C217.418 113.261 217.473 113.239 217.531 113.229L276.471 101.797C276.528 101.785 276.587 101.784 276.644 101.795C276.701 101.805 276.756 101.827 276.804 101.86C276.853 101.892 276.894 101.934 276.926 101.983C276.958 102.031 276.98 102.086 276.99 102.143C277.013 102.26 276.988 102.381 276.922 102.48C276.855 102.579 276.752 102.648 276.636 102.671L217.695 114.103L217.609 114.111Z" fill="#D1D3D4"/>
<path d="M258.035 146.894H257.923L221.042 137.252C220.979 137.243 220.919 137.221 220.865 137.188C220.811 137.154 220.765 137.109 220.73 137.057C220.695 137.004 220.672 136.944 220.661 136.882C220.651 136.819 220.653 136.755 220.669 136.694C220.685 136.633 220.714 136.575 220.754 136.526C220.793 136.476 220.843 136.436 220.899 136.407C220.956 136.378 221.017 136.361 221.081 136.358C221.144 136.355 221.207 136.365 221.266 136.388L258.147 146.029C258.241 146.066 258.319 146.133 258.37 146.219C258.42 146.306 258.441 146.406 258.428 146.506C258.415 146.605 258.369 146.697 258.298 146.767C258.227 146.838 258.134 146.882 258.035 146.894Z" fill="#D1D3D4"/>
<path d="M104.579 24.8269C104.486 24.8274 104.396 24.7983 104.321 24.7439C104.247 24.6894 104.191 24.6124 104.164 24.5242L100.653 14.7267C100.632 14.6717 100.623 14.6131 100.625 14.5544C100.628 14.4958 100.642 14.4381 100.667 14.385C100.692 14.3318 100.727 14.2842 100.771 14.2449C100.814 14.2055 100.865 14.1753 100.921 14.156C101.032 14.1192 101.154 14.1264 101.26 14.1763C101.366 14.2262 101.449 14.3148 101.492 14.4241L105.002 24.2302C105.042 24.3415 105.035 24.4637 104.985 24.5704C104.935 24.6772 104.845 24.76 104.734 24.8009L104.579 24.8269Z" fill="#D1D3D4"/>
<path d="M43.0442 89.388C42.9872 89.4001 42.9283 89.4001 42.8713 89.388L25.2825 82.0723C25.1745 82.0264 25.0888 81.9401 25.0436 81.8319C24.9983 81.7236 24.9972 81.602 25.0404 81.4929C25.088 81.3843 25.1759 81.2984 25.2856 81.2533C25.3952 81.2081 25.5181 81.2072 25.6284 81.2508L43.2171 88.5665C43.3251 88.6124 43.4109 88.6986 43.4561 88.8069C43.5013 88.9151 43.5025 89.0368 43.4593 89.1458C43.4193 89.2207 43.3593 89.2829 43.286 89.3257C43.2127 89.3684 43.129 89.39 43.0442 89.388Z" fill="#D1D3D4"/>
</svg>
