<svg width="21" height="20" viewBox="0 0 21 20" fill="none" xmlns="http://www.w3.org/2000/svg">
<path fill-rule="evenodd" clip-rule="evenodd" d="M19.8249 17.0121H11.9387C11.4205 17.0121 11 16.5916 11 16.0734C11 15.5553 11.4205 15.1348 11.9387 15.1348H19.8249C20.343 15.1348 20.7636 15.5553 20.7636 16.0734C20.7636 16.5916 20.343 17.0121 19.8249 17.0121Z" fill="black"/>
<path fill-rule="evenodd" clip-rule="evenodd" d="M19.8236 4.88127H11.9387C11.4205 4.88127 11 4.46074 11 3.94259C11 3.42444 11.4205 3.00391 11.9387 3.00391H19.8236C20.3418 3.00391 20.7623 3.42444 20.7623 3.94259C20.7623 4.46074 20.3418 4.88127 19.8236 4.88127Z" fill="black"/>
<mask id="mask0_2064_864" style="mask-type:luminance" maskUnits="userSpaceOnUse" x="0" y="0" width="8" height="8">
<path fill-rule="evenodd" clip-rule="evenodd" d="M0 0H7.79208V7.74927H0V0Z" fill="white"/>
</mask>
<g mask="url(#mask0_2064_864)">
<path fill-rule="evenodd" clip-rule="evenodd" d="M3.89612 1.87737C2.78347 1.87737 1.87733 2.7735 1.87733 3.87614C1.87733 4.97753 2.78347 5.87241 3.89612 5.87241C5.01003 5.87241 5.91492 4.97753 5.91492 3.87614C5.91492 2.7735 5.01003 1.87737 3.89612 1.87737ZM3.89616 7.74977C1.74846 7.74977 0 6.01258 0 3.87614C0 1.73969 1.74846 0 3.89616 0C6.04513 0 7.79233 1.73969 7.79233 3.87614C7.79233 6.01258 6.04513 7.74977 3.89616 7.74977Z" fill="black"/>
</g>
<path fill-rule="evenodd" clip-rule="evenodd" d="M3.89747 14.0277C2.78357 14.0277 1.87742 14.9238 1.87742 16.0252C1.87742 17.1279 2.78357 18.0227 3.89747 18.0227C5.01012 18.0227 5.91502 17.1279 5.91502 16.0252C5.91502 14.9238 5.01012 14.0277 3.89747 14.0277ZM3.89742 19.9002C1.74846 19.9002 0 18.1617 0 16.0253C0 13.8888 1.74846 12.1504 3.89742 12.1504C6.04513 12.1504 7.79233 13.8888 7.79233 16.0253C7.79233 18.1617 6.04513 19.9002 3.89742 19.9002Z" fill="black"/>
</svg>
