<svg width="145" height="23" viewBox="0 0 145 23" fill="none" xmlns="http://www.w3.org/2000/svg">
<path d="M6.76606 4.82054L6.45794 8.88983H13.2674C14.8901 8.88983 15.7015 9.57848 15.7015 10.9558C15.7015 11.8322 15.4755 12.4583 15.0236 12.8339C14.5717 13.2095 13.8425 13.3973 12.836 13.3973H6.11901L5.62602 19.6891C5.54385 20.5656 5.22547 21.2646 4.67085 21.7863C4.13678 22.308 3.44865 22.5689 2.60646 22.5689C1.76427 22.5689 1.09667 22.308 0.603684 21.7863C0.131236 21.2646 -0.0639061 20.576 0.0182589 19.7204L1.31236 2.97371C1.39452 2.11812 1.6821 1.46077 2.17509 1.00167C2.66808 0.542571 3.3254 0.313022 4.14705 0.313022H14.5307C16.1945 0.313022 17.0264 1.02254 17.0264 2.44157C17.0264 3.2763 16.7902 3.88147 16.3177 4.2571C15.8658 4.63273 15.1469 4.82054 14.1609 4.82054H6.76606Z" fill="#121212"/>
<path d="M27.9141 6.66737C28.5714 6.62563 29.0849 6.79258 29.4547 7.16821C29.845 7.54383 29.999 8.10727 29.9168 8.85853C29.8347 9.69325 29.5882 10.2984 29.1774 10.6741C28.7665 11.0497 28.0476 11.2897 27.0205 11.394L26.1886 11.4879C25.0383 11.634 24.2475 11.9366 23.8161 12.3957C23.3847 12.8339 23.1177 13.5852 23.015 14.6494L22.5836 20.0021C22.522 20.8368 22.2139 21.4733 21.6593 21.9115C21.1252 22.3498 20.4679 22.5689 19.6873 22.5689C18.9067 22.5689 18.2597 22.3498 17.7462 21.9115C17.2532 21.4733 17.0375 20.8368 17.0991 20.0021L17.9618 9.20285C18.044 8.38899 18.3624 7.76295 18.917 7.32472C19.4922 6.88649 20.1495 6.66737 20.889 6.66737C21.6079 6.66737 22.1728 6.87605 22.5836 7.29341C23.015 7.68991 23.2204 8.26378 23.1999 9.01504C23.775 8.32639 24.4529 7.78382 25.2334 7.38732C26.0346 6.96996 26.8048 6.74041 27.5443 6.69867L27.9141 6.66737Z" fill="#121212"/>
<path d="M44.1883 14.2738C44.1883 14.7329 44.0548 15.0981 43.7877 15.3694C43.5412 15.6198 43.192 15.745 42.7401 15.745H34.6982C34.9447 17.6231 36.0642 18.5622 38.0567 18.5622C38.6524 18.5622 39.1454 18.51 39.5357 18.4057C39.926 18.2805 40.4395 18.0822 41.0763 17.811C41.446 17.644 41.7644 17.5605 42.0314 17.5605C42.4834 17.5605 42.8326 17.7379 43.0791 18.0927C43.3461 18.4474 43.4796 18.8752 43.4796 19.3761C43.4796 19.8143 43.3872 20.2317 43.2023 20.6282C43.0174 21.0247 42.7299 21.3377 42.3396 21.5672C41.8055 21.8802 41.1174 22.1411 40.2752 22.3498C39.4535 22.5376 38.5805 22.6315 37.6562 22.6315C36.0334 22.6315 34.5955 22.3185 33.3425 21.6924C32.11 21.0664 31.1446 20.1899 30.4462 19.063C29.7683 17.9153 29.4294 16.5797 29.4294 15.0564C29.4294 13.4495 29.7581 12.0096 30.4154 10.7367C31.0932 9.44283 32.0279 8.43073 33.2193 7.70034C34.4106 6.96996 35.7458 6.60477 37.2248 6.60477C39.4227 6.60477 41.1276 7.28298 42.3396 8.63941C43.572 9.97497 44.1883 11.8531 44.1883 14.2738ZM37.4097 10.361C36.6702 10.361 36.0745 10.5906 35.6226 11.0497C35.1912 11.4879 34.9036 12.1766 34.7598 13.1156H39.6589C39.6384 12.2183 39.433 11.5401 39.0427 11.081C38.673 10.601 38.1286 10.361 37.4097 10.361Z" fill="#121212"/>
<path d="M52.0809 22.6315C50.1706 22.6315 48.4143 22.308 46.8121 21.6611C46.2986 21.4316 45.9083 21.129 45.6413 20.7534C45.3948 20.3569 45.2715 19.9395 45.2715 19.5013C45.2715 18.9587 45.4358 18.4892 45.7645 18.0927C46.1137 17.6753 46.5451 17.4666 47.0586 17.4666C47.3667 17.4666 47.7056 17.5605 48.0754 17.7484C48.7327 18.0614 49.4619 18.3118 50.263 18.4996C51.0847 18.6874 51.855 18.7813 52.5739 18.7813C53.1696 18.7813 53.6215 18.7083 53.9296 18.5622C54.2583 18.4161 54.4226 18.197 54.4226 17.9049C54.4226 17.571 54.2172 17.3101 53.8064 17.1223C53.3956 16.9345 52.728 16.7049 51.8036 16.4337C50.6739 16.1206 49.7392 15.8076 48.9997 15.4946C48.2603 15.1816 47.6235 14.7016 47.0894 14.0547C46.5553 13.4078 46.2986 12.5731 46.3191 11.5505C46.3397 10.5906 46.6478 9.73499 47.2435 8.98373C47.8392 8.23248 48.6814 7.64817 49.77 7.23081C50.8793 6.81345 52.1528 6.60477 53.5907 6.60477C54.248 6.60477 55.0081 6.69867 55.8708 6.88649C56.7335 7.05343 57.4525 7.26211 58.0276 7.51253C58.459 7.74208 58.7774 8.04467 58.9828 8.42029C59.2087 8.79592 59.3217 9.19242 59.3217 9.60978C59.3217 10.1315 59.1574 10.5906 58.8287 10.9871C58.5206 11.3627 58.1303 11.5505 57.6579 11.5505C57.3498 11.5505 57.0519 11.4775 56.7643 11.3314C55.5935 10.7471 54.3713 10.4549 53.0977 10.4549C52.4609 10.4549 51.968 10.5384 51.6188 10.7054C51.2901 10.8514 51.1258 11.0601 51.1258 11.3314C51.1258 11.6653 51.3312 11.9366 51.742 12.1453C52.1734 12.3539 52.8512 12.5835 53.7756 12.8339C54.8848 13.1469 55.7989 13.4599 56.5178 13.773C57.2573 14.086 57.8941 14.5555 58.4282 15.1816C58.9828 15.7867 59.2601 16.5902 59.2601 17.5918C59.2601 19.1778 58.6336 20.4195 57.3806 21.3168C56.1481 22.1933 54.3816 22.6315 52.0809 22.6315Z" fill="#121212"/>
<path d="M72.3316 6.60477C74.0159 6.60477 75.2895 7.09517 76.1522 8.07597C77.015 9.0359 77.4463 10.4549 77.4463 12.3331C77.4463 12.7922 77.4361 13.1469 77.4155 13.3973L76.8917 20.0021C76.8095 20.7951 76.5117 21.4211 75.9982 21.8802C75.4846 22.3393 74.8068 22.5689 73.9646 22.5689C73.1224 22.5689 72.4651 22.3393 71.9926 21.8802C71.5202 21.4003 71.325 20.7742 71.4072 20.0021L71.931 13.5852C71.9926 12.7087 71.8488 12.0409 71.4996 11.5818C71.171 11.1018 70.6472 10.8619 69.9282 10.8619C69.1271 10.8619 68.5006 11.1332 68.0487 11.6757C67.6173 12.1974 67.3708 12.9069 67.3092 13.8043L66.7854 20.0021C66.7443 20.7951 66.4568 21.4211 65.9227 21.8802C65.4091 22.3393 64.7313 22.5689 63.8891 22.5689C63.0264 22.5689 62.3588 22.3393 61.8863 21.8802C61.4344 21.4211 61.2393 20.7951 61.3009 20.0021L62.6566 2.69199C62.6977 1.94074 62.9853 1.33556 63.5194 0.876462C64.074 0.396495 64.7826 0.156511 65.6454 0.156511C66.4465 0.156511 67.073 0.386061 67.5249 0.84516C67.9768 1.28339 68.1822 1.85726 68.1411 2.56678L67.679 8.4516C68.213 7.86729 68.8806 7.41862 69.6817 7.1056C70.4828 6.77171 71.3661 6.60477 72.3316 6.60477Z" fill="#121212"/>
<path d="M95.7014 10.9871C96.8106 11.321 97.6631 11.9574 98.2588 12.8965C98.875 13.8356 99.1831 14.9103 99.1831 16.1206C99.1831 18.124 98.4437 19.6682 96.9647 20.7534C95.5063 21.8385 93.5343 22.3811 91.0488 22.3811H82.7604C81.9182 22.3811 81.2917 22.162 80.8809 21.7237C80.4701 21.2646 80.2955 20.6073 80.3571 19.7517L81.682 2.97371C81.7642 2.11812 82.0415 1.46077 82.5139 1.00167C83.0069 0.542571 83.6745 0.313022 84.5167 0.313022H92.0656C94.4484 0.313022 96.2663 0.834725 97.5193 1.87813C98.7928 2.90067 99.4296 4.23623 99.4296 5.88482C99.4296 8.28465 98.1869 9.9854 95.7014 10.9871ZM90.6791 8.98373C91.8705 8.98373 92.7126 8.82722 93.2056 8.5142C93.7192 8.18031 93.9759 7.60644 93.9759 6.79258C93.9759 6.08306 93.7397 5.55093 93.2673 5.19617C92.8153 4.84141 92.0759 4.66403 91.0488 4.66403H87.0741L86.7351 8.98373H90.6791ZM90.5558 18.0301C91.7267 18.0301 92.5791 17.8527 93.1132 17.4979C93.6678 17.1432 93.9451 16.5276 93.9451 15.6511C93.9451 14.879 93.6986 14.3051 93.2056 13.9295C92.7332 13.533 91.9732 13.3347 90.9256 13.3347H86.3962L86.0265 18.0301H90.5558Z" fill="#121212"/>
<path d="M112.627 22.6941C110.449 22.6941 108.549 22.2663 106.927 21.4107C105.304 20.5342 104.051 19.303 103.167 17.7171C102.305 16.1102 101.873 14.2112 101.873 12.02C101.873 9.64108 102.325 7.54383 103.229 5.72831C104.133 3.89191 105.417 2.48331 107.081 1.50251C108.744 0.500835 110.675 0 112.873 0C115.051 0 116.951 0.438231 118.573 1.31469C120.196 2.17029 121.439 3.40151 122.302 5.00835C123.185 6.6152 123.627 8.50377 123.627 10.6741C123.627 13.053 123.164 15.1503 122.24 16.9658C121.336 18.7813 120.052 20.1899 118.389 21.1916C116.725 22.1933 114.804 22.6941 112.627 22.6941ZM112.565 18.2492C114.229 18.2492 115.544 17.5814 116.509 16.2458C117.474 14.9103 117.957 13.053 117.957 10.6741C117.957 8.69158 117.516 7.15777 116.632 6.07263C115.749 4.98749 114.517 4.44491 112.935 4.44491C111.25 4.44491 109.926 5.12313 108.96 6.47956C107.995 7.81512 107.512 9.66195 107.512 12.02C107.512 14.0234 107.943 15.5676 108.806 16.6528C109.689 17.7171 110.942 18.2492 112.565 18.2492Z" fill="#121212"/>
<path d="M140.466 1.06427C141.02 0.417363 141.657 0.0939073 142.376 0.0939073C143.033 0.0939073 143.598 0.344325 144.07 0.84516C144.563 1.32513 144.81 1.90943 144.81 2.59808C144.81 3.26586 144.553 3.89191 144.04 4.47622L138.093 11.2688L143.393 18.2179C143.742 18.6979 143.916 19.2091 143.916 19.7517C143.916 20.5029 143.619 21.1707 143.023 21.755C142.448 22.3185 141.811 22.6002 141.113 22.6002C140.435 22.6002 139.86 22.2872 139.387 21.6611L134.488 15.0564L128.942 21.6611C128.387 22.308 127.75 22.6315 127.032 22.6315C126.374 22.6315 125.809 22.3915 125.337 21.9115C124.864 21.4107 124.628 20.816 124.628 20.1273C124.628 19.4387 124.875 18.8022 125.368 18.2179L131.499 11.1436L126.631 4.47622C126.302 4.01712 126.138 3.52672 126.138 3.00501C126.138 2.25376 126.426 1.58598 127.001 1.00167C127.596 0.396495 128.254 0.0939073 128.973 0.0939073C129.671 0.0939073 130.257 0.417363 130.729 1.06427L135.135 7.16821L140.466 1.06427Z" fill="#121212"/>
<path d="M95.7014 10.9871C96.8106 11.321 97.6631 11.9574 98.2588 12.8965C98.875 13.8356 99.1831 14.9103 99.1831 16.1206C99.1831 18.124 98.4437 19.6682 96.9647 20.7534C95.5063 21.8385 93.5343 22.3811 91.0488 22.3811H82.7604C81.9182 22.3811 81.2917 22.162 80.8809 21.7237C80.4701 21.2646 80.2955 20.6073 80.3571 19.7517L81.682 2.97371C81.7642 2.11812 82.0415 1.46077 82.5139 1.00167C83.0069 0.542571 83.6745 0.313022 84.5167 0.313022H92.0656C94.4484 0.313022 96.2663 0.834725 97.5193 1.87813C98.7929 2.90067 99.4296 4.23623 99.4296 5.88482C99.4296 8.28465 98.1869 9.9854 95.7014 10.9871ZM90.6791 8.98374C91.8705 8.98374 92.7126 8.82722 93.2056 8.5142C93.7192 8.18031 93.9759 7.60644 93.9759 6.79258C93.9759 6.08306 93.7397 5.55093 93.2673 5.19617C92.8154 4.84141 92.0759 4.66403 91.0488 4.66403H87.0741L86.7351 8.98374H90.6791ZM90.5558 18.0301C91.7267 18.0301 92.5791 17.8527 93.1132 17.4979C93.6678 17.1432 93.9451 16.5276 93.9451 15.6511C93.9451 14.879 93.6986 14.3051 93.2056 13.9295C92.7332 13.533 91.9732 13.3347 90.9256 13.3347H86.3962L86.0265 18.0301H90.5558Z" fill="#EB6A58"/>
<path d="M112.627 22.6941C110.449 22.6941 108.549 22.2663 106.927 21.4107C105.304 20.5343 104.051 19.303 103.168 17.7171C102.305 16.1102 101.873 14.2112 101.873 12.02C101.873 9.64108 102.325 7.54383 103.229 5.72831C104.133 3.89191 105.417 2.48331 107.081 1.50251C108.744 0.500835 110.675 0 112.873 0C115.051 0 116.951 0.438231 118.573 1.31469C120.196 2.17029 121.439 3.40151 122.302 5.00835C123.185 6.6152 123.627 8.50377 123.627 10.6741C123.627 13.053 123.164 15.1503 122.24 16.9658C121.336 18.7813 120.052 20.1899 118.389 21.1916C116.725 22.1933 114.804 22.6941 112.627 22.6941ZM112.565 18.2492C114.229 18.2492 115.544 17.5814 116.509 16.2458C117.474 14.9103 117.957 13.053 117.957 10.6741C117.957 8.69158 117.516 7.15777 116.632 6.07263C115.749 4.98749 114.517 4.44491 112.935 4.44491C111.25 4.44491 109.926 5.12313 108.96 6.47956C107.995 7.81512 107.512 9.66195 107.512 12.02C107.512 14.0234 107.943 15.5676 108.806 16.6528C109.689 17.7171 110.942 18.2492 112.565 18.2492Z" fill="#EB6A58"/>
<path d="M140.466 1.06427C141.02 0.417363 141.657 0.0939073 142.376 0.0939073C143.033 0.0939073 143.598 0.344325 144.071 0.84516C144.563 1.32513 144.81 1.90943 144.81 2.59808C144.81 3.26586 144.553 3.89191 144.04 4.47622L138.093 11.2688L143.393 18.2179C143.742 18.6979 143.916 19.2091 143.916 19.7517C143.916 20.5029 143.619 21.1707 143.023 21.755C142.448 22.3185 141.811 22.6002 141.113 22.6002C140.435 22.6002 139.86 22.2872 139.387 21.6611L134.488 15.0564L128.942 21.6611C128.387 22.308 127.75 22.6315 127.032 22.6315C126.374 22.6315 125.809 22.3915 125.337 21.9115C124.864 21.4107 124.628 20.816 124.628 20.1273C124.628 19.4387 124.875 18.8022 125.368 18.2179L131.499 11.1436L126.631 4.47622C126.302 4.01712 126.138 3.52672 126.138 3.00501C126.138 2.25376 126.426 1.58598 127.001 1.00167C127.596 0.396495 128.254 0.0939073 128.973 0.0939073C129.671 0.0939073 130.257 0.417363 130.729 1.06427L135.135 7.16821L140.466 1.06427Z" fill="#EB6A58"/>
</svg>
