<svg width="25" height="30" viewBox="0 0 25 30" fill="none" xmlns="http://www.w3.org/2000/svg">
<path fill-rule="evenodd" clip-rule="evenodd" d="M10.2724 7.24219H18.8805C23.5023 7.24219 25.2422 9.52412 24.9733 12.8766C24.5289 18.4113 21.0981 21.4734 16.5474 21.4734H14.2498C13.6254 21.4734 13.2054 21.8764 13.0366 22.9686L12.0611 29.3182C11.9967 29.7299 11.7744 29.9683 11.4411 30.0008H6.03272C5.52388 30.0008 5.34389 29.6216 5.47722 28.8002L8.77471 8.44492C8.90359 7.6301 9.36132 7.24219 10.2724 7.24219Z" fill="#009EE3"/>
<path fill-rule="evenodd" clip-rule="evenodd" d="M5.75952 0H14.6093C17.1013 0 20.0589 0.0772509 22.0351 1.76573C23.3564 2.8936 24.0502 4.68803 23.8904 6.62151C23.3473 13.1569 19.3058 16.8186 13.8836 16.8186H9.52034C8.77639 16.8186 8.28575 17.2954 8.0758 18.5844L6.85719 26.0887C6.77731 26.5743 6.56052 26.8612 6.17257 26.8966H0.711617C0.106873 26.8966 -0.107642 26.4551 0.0498197 25.4796L3.97495 1.42583C4.13241 0.459089 4.68239 0 5.75952 0Z" fill="#113984"/>
<path fill-rule="evenodd" clip-rule="evenodd" d="M7.60864 17.587L9.12545 8.42983C9.25764 7.62668 9.71918 7.24219 10.6378 7.24219H19.3174C20.7536 7.24219 21.9164 7.45579 22.826 7.85096C21.9545 13.4816 18.1345 16.6087 13.1337 16.6087H8.8566C8.28303 16.6108 7.86182 16.8843 7.60864 17.587Z" fill="#172C70"/>
</svg>
