<svg width="196" height="76" viewBox="0 0 196 76" fill="none" xmlns="http://www.w3.org/2000/svg">
<path d="M9.15122 51.0589L8.73448 56.5627H17.9443C20.1392 56.5627 21.2366 57.4941 21.2366 59.3569C21.2366 60.5424 20.931 61.3891 20.3197 61.8972C19.7085 62.4052 18.7223 62.6592 17.3609 62.6592H8.27607L7.60929 71.1689C7.49816 72.3543 7.06753 73.2999 6.31741 74.0055C5.59507 74.7111 4.66436 75.0639 3.52528 75.0639C2.3862 75.0639 1.48327 74.7111 0.816494 74.0055C0.177499 73.2999 -0.0864342 72.3685 0.0246955 71.2112L1.77499 48.5611C1.88612 47.4039 2.27507 46.5148 2.94185 45.8938C3.60863 45.2729 4.49766 44.9624 5.60896 44.9624H19.653C21.9033 44.9624 23.0285 45.9221 23.0285 47.8413C23.0285 48.9703 22.709 49.7888 22.07 50.2969C21.4588 50.8049 20.4864 51.0589 19.1529 51.0589H9.15122Z" fill="#EB6A58"/>
<path d="M37.7543 53.5568C38.6433 53.5004 39.3379 53.7261 39.838 54.2342C40.3658 54.7422 40.5742 55.5043 40.4631 56.5204C40.3519 57.6494 40.0185 58.4679 39.4629 58.9759C38.9072 59.484 37.9349 59.8085 36.5457 59.9497L35.4206 60.0767C33.8647 60.2742 32.7951 60.6835 32.2117 61.3044C31.6283 61.8971 31.2671 62.9132 31.1282 64.3527L30.5448 71.5923C30.4614 72.7213 30.0447 73.5821 29.2945 74.1748C28.5722 74.7675 27.6832 75.0639 26.6274 75.0639C25.5717 75.0639 24.6966 74.7675 24.002 74.1748C23.3352 73.5821 23.0435 72.7213 23.1268 71.5923L24.2937 56.9861C24.4048 55.8853 24.8355 55.0386 25.5856 54.4459C26.3635 53.8532 27.2525 53.5568 28.2527 53.5568C29.2251 53.5568 29.9891 53.839 30.5448 54.4035C31.1282 54.9398 31.406 55.716 31.3782 56.7321C32.1561 55.8007 33.0729 55.0668 34.1287 54.5305C35.2122 53.9661 36.254 53.6556 37.2542 53.5991L37.7543 53.5568Z" fill="#EB6A58"/>
<path d="M59.7654 63.8446C59.7654 64.4656 59.5849 64.9595 59.2237 65.3264C58.8903 65.6651 58.418 65.8345 57.8068 65.8345H46.93C47.2634 68.3747 48.7775 69.6448 51.4724 69.6448C52.2781 69.6448 52.9449 69.5742 53.4727 69.4331C54.0006 69.2638 54.6951 68.9956 55.5564 68.6287C56.0565 68.4029 56.4871 68.29 56.8483 68.29C57.4595 68.29 57.9318 68.5299 58.2652 69.0097C58.6264 69.4895 58.8069 70.0682 58.8069 70.7455C58.8069 71.3383 58.6819 71.9027 58.4319 72.439C58.1818 72.9753 57.7929 73.3986 57.265 73.7091C56.5427 74.1325 55.612 74.4853 54.4729 74.7675C53.3616 75.0216 52.1808 75.1486 50.9306 75.1486C48.7358 75.1486 46.791 74.7252 45.0963 73.8785C43.4294 73.0317 42.1236 71.8463 41.179 70.3222C40.2622 68.7698 39.8038 66.9635 39.8038 64.9031C39.8038 62.7298 40.2483 60.7823 41.1373 59.0606C42.0542 57.3107 43.3183 55.9418 44.9296 54.9539C46.541 53.9661 48.3469 53.4721 50.3472 53.4721C53.3199 53.4721 55.6259 54.3894 57.265 56.224C58.932 58.0304 59.7654 60.5706 59.7654 63.8446ZM50.5972 58.5525C49.5971 58.5525 48.7914 58.863 48.1802 59.484C47.5967 60.0767 47.2078 61.0081 47.0133 62.2782H53.6394C53.6116 61.0645 53.3338 60.1472 52.8059 59.5263C52.3059 58.8771 51.5696 58.5525 50.5972 58.5525Z" fill="#EB6A58"/>
<path d="M70.4404 75.1486C67.8566 75.1486 65.4812 74.7111 63.3142 73.8361C62.6196 73.5257 62.0918 73.1164 61.7306 72.6084C61.3972 72.0721 61.2305 71.5076 61.2305 70.9149C61.2305 70.181 61.4528 69.546 61.8973 69.0097C62.3696 68.4452 62.953 68.163 63.6476 68.163C64.0643 68.163 64.5227 68.29 65.0228 68.544C65.9119 68.9674 66.8981 69.3061 67.9816 69.5601C69.0929 69.8141 70.1348 69.9411 71.1072 69.9411C71.9129 69.9411 72.5241 69.8424 72.9408 69.6448C73.3853 69.4472 73.6076 69.1509 73.6076 68.7557C73.6076 68.3041 73.3298 67.9513 72.7741 67.6973C72.2185 67.4433 71.3155 67.1328 70.0653 66.7659C68.5373 66.3425 67.2732 65.9191 66.273 65.4958C65.2729 65.0724 64.4116 64.4232 63.6893 63.5483C62.9669 62.6733 62.6196 61.5443 62.6474 60.1613C62.6752 58.863 63.0919 57.7058 63.8976 56.6897C64.7033 55.6736 65.8424 54.8834 67.3149 54.3189C68.8151 53.7544 70.5376 53.4721 72.4824 53.4721C73.3714 53.4721 74.3994 53.5991 75.5662 53.8532C76.7331 54.079 77.7055 54.3612 78.4834 54.6999C79.0668 55.0104 79.4975 55.4196 79.7753 55.9277C80.0809 56.4357 80.2337 56.972 80.2337 57.5365C80.2337 58.2421 80.0114 58.863 79.5669 59.3993C79.1502 59.9073 78.6223 60.1613 77.9833 60.1613C77.5666 60.1613 77.1637 60.0626 76.7748 59.865C75.1912 59.0747 73.5381 58.6796 71.8156 58.6796C70.9544 58.6796 70.2876 58.7925 69.8153 59.0182C69.3708 59.2158 69.1485 59.4981 69.1485 59.865C69.1485 60.3166 69.4263 60.6835 69.982 60.9657C70.5654 61.248 71.4822 61.5585 72.7324 61.8972C74.2327 62.3205 75.469 62.7439 76.4414 63.1673C77.4416 63.5906 78.3028 64.2257 79.0251 65.0724C79.7753 65.8909 80.1503 66.9776 80.1503 68.3323C80.1503 70.4774 79.303 72.1568 77.6082 73.3704C75.9413 74.5559 73.552 75.1486 70.4404 75.1486Z" fill="#EB6A58"/>
<path d="M97.8297 53.4721C100.108 53.4721 101.83 54.1354 102.997 55.462C104.164 56.7603 104.748 58.6796 104.748 61.2198C104.748 61.8407 104.734 62.3205 104.706 62.6592L103.997 71.5923C103.886 72.6648 103.483 73.5115 102.789 74.1325C102.094 74.7534 101.177 75.0639 100.038 75.0639C98.8993 75.0639 98.0103 74.7534 97.3713 74.1325C96.7323 73.4833 96.4684 72.6366 96.5795 71.5923L97.288 62.9132C97.3713 61.7278 97.1768 60.8246 96.7045 60.2037C96.26 59.5545 95.5516 59.2299 94.5792 59.2299C93.4957 59.2299 92.6483 59.5969 92.0371 60.3307C91.4537 61.0363 91.1203 61.9959 91.0369 63.2096L90.3285 71.5923C90.2729 72.6648 89.8839 73.5115 89.1616 74.1325C88.467 74.7534 87.5502 75.0639 86.4111 75.0639C85.2443 75.0639 84.3414 74.7534 83.7024 74.1325C83.0911 73.5115 82.8272 72.6648 82.9106 71.5923L84.7442 48.18C84.7998 47.1639 85.1887 46.3454 85.9111 45.7245C86.6612 45.0753 87.6197 44.7507 88.7865 44.7507C89.87 44.7507 90.7174 45.0612 91.3286 45.6822C91.9398 46.2749 92.2177 47.051 92.1621 48.0107L91.537 55.97C92.2593 55.1797 93.1623 54.5729 94.2458 54.1495C95.3293 53.6979 96.5239 53.4721 97.8297 53.4721Z" fill="#EB6A58"/>
<path d="M129.438 59.3993C130.938 59.8509 132.091 60.7117 132.897 61.9818C133.73 63.2519 134.147 64.7055 134.147 66.3425C134.147 69.0521 133.147 71.1407 131.146 72.6084C129.174 74.076 126.507 74.8099 123.145 74.8099H111.935C110.796 74.8099 109.948 74.5135 109.393 73.9208C108.837 73.2999 108.601 72.4108 108.684 71.2536L110.476 48.5611C110.587 47.4039 110.963 46.5148 111.602 45.8938C112.268 45.2729 113.171 44.9624 114.31 44.9624H124.52C127.743 44.9624 130.202 45.668 131.897 47.0793C133.619 48.4623 134.48 50.2686 134.48 52.4984C134.48 55.7442 132.799 58.0445 129.438 59.3993ZM122.645 56.6897C124.256 56.6897 125.395 56.478 126.062 56.0547C126.757 55.6031 127.104 54.8269 127.104 53.7261C127.104 52.7665 126.785 52.0468 126.146 51.567C125.534 51.0872 124.534 50.8472 123.145 50.8472H117.769L117.311 56.6897H122.645ZM122.478 68.9251C124.062 68.9251 125.215 68.6851 125.937 68.2053C126.687 67.7255 127.062 66.8929 127.062 65.7075C127.062 64.6632 126.729 63.887 126.062 63.3789C125.423 62.8427 124.395 62.5745 122.978 62.5745H116.852L116.352 68.9251H122.478Z" fill="#EB6A58"/>
<path d="M152.33 75.2332C149.385 75.2332 146.815 74.6546 144.62 73.4974C142.425 72.312 140.731 70.6468 139.536 68.5017C138.369 66.3284 137.786 63.76 137.786 60.7964C137.786 57.5788 138.397 54.7422 139.619 52.2867C140.842 49.8029 142.578 47.8978 144.828 46.5712C147.079 45.2165 149.69 44.5391 152.663 44.5391C155.608 44.5391 158.178 45.1318 160.373 46.3172C162.567 47.4744 164.248 49.1397 165.415 51.313C166.61 53.4862 167.207 56.0406 167.207 58.9759C167.207 62.1935 166.582 65.0301 165.332 67.4856C164.109 69.9411 162.373 71.8463 160.123 73.2011C157.872 74.5559 155.275 75.2332 152.33 75.2332ZM152.246 69.2214C154.497 69.2214 156.275 68.3182 157.581 66.5119C158.886 64.7055 159.539 62.1935 159.539 58.9759C159.539 56.2946 158.942 54.2201 157.747 52.7524C156.553 51.2847 154.886 50.5509 152.746 50.5509C150.468 50.5509 148.676 51.4682 147.371 53.3028C146.065 55.1091 145.412 57.607 145.412 60.7964C145.412 63.5059 145.995 65.5946 147.162 67.0622C148.357 68.5017 150.052 69.2214 152.246 69.2214Z" fill="#EB6A58"/>
<path d="M189.982 45.9785C190.732 45.1036 191.593 44.6661 192.566 44.6661C193.455 44.6661 194.219 45.0048 194.858 45.6822C195.525 46.3313 195.858 47.1216 195.858 48.053C195.858 48.9562 195.511 49.8029 194.816 50.5932L186.773 59.7803L193.941 69.1791C194.413 69.8282 194.65 70.5197 194.65 71.2536C194.65 72.2697 194.247 73.1728 193.441 73.9631C192.663 74.7252 191.802 75.1062 190.857 75.1062C189.94 75.1062 189.163 74.6829 188.524 73.8361L181.897 64.9031L174.396 73.8361C173.646 74.7111 172.785 75.1486 171.812 75.1486C170.923 75.1486 170.159 74.824 169.52 74.1748C168.881 73.4974 168.562 72.693 168.562 71.7616C168.562 70.8302 168.895 69.9694 169.562 69.1791L177.855 59.611L171.271 50.5932C170.826 49.9723 170.604 49.309 170.604 48.6034C170.604 47.5873 170.993 46.6841 171.771 45.8938C172.576 45.0753 173.465 44.6661 174.438 44.6661C175.382 44.6661 176.174 45.1036 176.813 45.9785L182.773 54.2342L189.982 45.9785Z" fill="#EB6A58"/>
<path d="M129.438 59.3993C130.938 59.8509 132.091 60.7117 132.897 61.9818C133.73 63.2519 134.147 64.7055 134.147 66.3425C134.147 69.0521 133.147 71.1407 131.146 72.6084C129.174 74.076 126.507 74.8099 123.145 74.8099H111.935C110.796 74.8099 109.948 74.5135 109.393 73.9208C108.837 73.2999 108.601 72.4108 108.684 71.2536L110.476 48.5611C110.587 47.4039 110.963 46.5148 111.602 45.8938C112.268 45.2729 113.171 44.9624 114.31 44.9624H124.52C127.743 44.9624 130.202 45.668 131.897 47.0793C133.619 48.4623 134.48 50.2686 134.48 52.4984C134.48 55.7442 132.8 58.0445 129.438 59.3993ZM122.645 56.6897C124.256 56.6897 125.396 56.478 126.062 56.0547C126.757 55.6031 127.104 54.8269 127.104 53.7261C127.104 52.7665 126.785 52.0468 126.146 51.567C125.534 51.0872 124.534 50.8472 123.145 50.8472H117.769L117.311 56.6897H122.645ZM122.478 68.9251C124.062 68.9251 125.215 68.6851 125.937 68.2053C126.687 67.7255 127.062 66.8929 127.062 65.7075C127.062 64.6632 126.729 63.887 126.062 63.3789C125.423 62.8427 124.395 62.5745 122.978 62.5745H116.852L116.352 68.9251H122.478Z" fill="#121212"/>
<path d="M152.33 75.2332C149.385 75.2332 146.815 74.6546 144.62 73.4974C142.425 72.312 140.731 70.6468 139.536 68.5017C138.369 66.3284 137.786 63.76 137.786 60.7964C137.786 57.5788 138.397 54.7422 139.619 52.2867C140.842 49.8029 142.578 47.8978 144.828 46.5712C147.079 45.2165 149.69 44.5391 152.663 44.5391C155.608 44.5391 158.178 45.1318 160.373 46.3172C162.567 47.4744 164.248 49.1397 165.415 51.313C166.61 53.4862 167.207 56.0406 167.207 58.9759C167.207 62.1935 166.582 65.0301 165.332 67.4856C164.109 69.9411 162.373 71.8463 160.123 73.2011C157.872 74.5559 155.275 75.2332 152.33 75.2332ZM152.246 69.2214C154.497 69.2214 156.275 68.3182 157.581 66.5119C158.886 64.7055 159.539 62.1935 159.539 58.9759C159.539 56.2946 158.942 54.2201 157.747 52.7524C156.553 51.2847 154.886 50.5509 152.746 50.5509C150.468 50.5509 148.676 51.4682 147.371 53.3028C146.065 55.1091 145.412 57.607 145.412 60.7964C145.412 63.5059 145.995 65.5946 147.162 67.0622C148.357 68.5017 150.052 69.2214 152.246 69.2214Z" fill="#121212"/>
<path d="M189.982 45.9785C190.732 45.1036 191.593 44.6661 192.566 44.6661C193.455 44.6661 194.219 45.0048 194.858 45.6822C195.525 46.3313 195.858 47.1216 195.858 48.053C195.858 48.9562 195.511 49.8029 194.816 50.5932L186.773 59.7803L193.941 69.1791C194.413 69.8282 194.65 70.5197 194.65 71.2536C194.65 72.2697 194.247 73.1728 193.441 73.9631C192.663 74.7252 191.802 75.1062 190.857 75.1062C189.94 75.1062 189.163 74.6829 188.524 73.8361L181.897 64.9031L174.396 73.8361C173.646 74.7111 172.785 75.1486 171.812 75.1486C170.923 75.1486 170.159 74.824 169.52 74.1748C168.881 73.4974 168.562 72.693 168.562 71.7616C168.562 70.8302 168.895 69.9694 169.562 69.1791L177.855 59.611L171.271 50.5932C170.826 49.9723 170.604 49.309 170.604 48.6034C170.604 47.5873 170.993 46.6841 171.771 45.8938C172.576 45.0753 173.465 44.6661 174.438 44.6661C175.382 44.6661 176.174 45.1036 176.813 45.9785L182.773 54.2342L189.982 45.9785Z" fill="#121212"/>
<path d="M59.4144 19.5091C59.5035 22.1156 59.637 24.7615 60.0823 27.368C60.4385 29.4216 61.0619 31.4357 62.5312 33.0944C63.2881 33.9237 64.3122 34.5161 65.4699 34.6741C66.583 34.8715 66.8056 35.5824 67.0728 36.2538C67.6516 37.715 67.6961 39.2552 68.2749 40.7164C68.5421 41.3878 68.0523 41.5457 67.3399 41.5457C64.1786 41.5062 61.1064 41.1508 58.1677 39.966C55.229 38.7418 52.9583 36.9251 51.6225 34.2792C49.9751 31.0013 49.6634 27.526 50.0641 23.9717C50.7765 17.5345 52.7356 11.4132 55.3626 5.41037C56.0305 3.83068 56.6984 2.29049 57.4108 0.750291C57.856 -0.158029 57.9896 -0.197522 58.8801 0.394861C63.2436 3.35678 67.4735 6.47666 71.3027 9.91248C75.2209 13.4273 78.872 17.1001 81.1873 21.6417C82.9238 25.117 83.5916 28.6713 81.8997 32.344C81.0982 34.0817 79.9406 35.6219 78.3377 36.8067C76.9129 37.8729 76.2004 39.1762 75.7107 40.6769C75.3099 42.0591 74.7756 43.4414 74.3304 44.8236C74.2413 45.0605 74.2413 45.3765 73.8406 45.3765C73.5289 45.3765 73.4844 45.1 73.4399 44.8631C72.4158 41.5062 71.3917 38.1494 70.3676 34.7926C70.2341 34.3581 70.145 33.8842 70.6348 33.5288C73.1282 31.5147 73.1727 29.0662 72.2822 26.4597C70.7684 22.1156 68.0523 18.3243 65.6925 14.4146C65.4253 13.9802 65.1582 13.5458 64.891 13.1113C64.7129 12.8744 64.4903 12.5585 64.0896 12.7559C63.7334 12.9139 63.7334 13.1903 63.867 13.5063C64.7575 15.9943 65.648 18.5218 66.5385 21.0098C67.1618 22.9054 67.8297 24.7615 68.0969 26.7362C68.1859 27.3285 68.1414 27.9209 68.0969 28.5133C68.0523 29.1452 67.6516 29.6586 66.9837 29.856C66.3158 30.093 65.8261 29.6981 65.4253 29.3426C64.7129 28.7503 64.3567 27.9209 64.0451 27.1311C62.6202 23.3793 61.8633 19.5091 60.8838 15.6783C60.7947 15.2439 60.6166 14.8095 60.483 14.3356C60.394 14.0197 60.3049 13.7432 59.8597 13.7827C59.4144 13.8222 59.4144 14.1381 59.4144 14.4541C59.4144 16.1522 59.4144 17.8109 59.4144 19.5091Z" fill="#EB6A58"/>
<path d="M68.3194 42.6894C68.3194 43.1634 67.9632 43.2818 67.607 43.4398C64.9354 44.4666 62.2194 45.2564 59.2807 45.3354C54.2494 45.4934 50.4202 43.5188 47.6151 39.9645C45.1662 36.8841 43.7414 33.4483 42.6728 29.815C41.7378 26.6556 41.1144 23.4568 40.5801 20.2579C40.1794 17.8884 40.0458 15.4398 39.8677 13.0308C39.7787 12.0435 39.556 11.0957 39.6451 10.0689C39.6896 9.59499 39.8677 9.39753 40.402 9.51601C43.0735 10.1084 45.745 10.7403 48.4611 11.2932C49.2625 11.4511 49.3961 11.7671 49.2625 12.4779C48.1939 17.138 47.3925 21.8771 47.7042 26.6556C47.9268 30.3679 48.4611 34.0407 50.7319 37.3185C52.7355 40.1619 55.5851 41.8601 59.2362 42.571C62.1749 43.2028 65.2471 43.0844 68.3194 42.6894Z" fill="#020201"/>
</svg>
