<svg width="220" height="222" viewBox="0 0 220 222" fill="none" xmlns="http://www.w3.org/2000/svg">
<path d="M72.813 176.463C57.56 168.999 41.3568 163.658 24.6549 160.589C33.2658 154.88 33.7523 140.261 35.1946 130.029C39.8371 97.1893 72.4119 76.2124 97.7412 58.9308C99.8747 57.4283 102.085 56.0381 104.364 54.7661C107.052 53.3239 114.536 48.8605 116.499 52.9825C118.385 56.9509 113.709 64.1707 111.379 67.0809C112.925 64.778 114.636 62.5903 116.499 60.5352C117.072 59.7674 117.868 59.1952 118.778 58.8966C120.485 58.5041 122.115 60.1256 122.371 61.8495C122.627 63.5734 121.91 65.2631 121.125 66.8419C119.233 70.5701 116.876 74.0428 114.11 77.1768C115.97 75.0688 122.849 67.1748 122.704 75.1712C122.584 80.2081 120.484 84.9948 116.858 88.493C118.449 87.0962 120.163 85.8452 121.978 84.7551C122.233 84.5543 122.527 84.4089 122.842 84.3281C123.156 84.2473 123.484 84.2329 123.804 84.2857C124.143 84.4504 124.434 84.6993 124.649 85.0086C124.865 85.3179 124.997 85.6772 125.033 86.0522C126.177 91.1727 123.327 94.8424 121.381 99.2204C119.862 102.634 118.974 105.843 117.037 109.129C110.039 121.025 102.614 132.717 94.6092 143.956C92.5439 146.815 72.9154 176.514 72.813 176.463Z" fill="white"/>
<path d="M72.7874 176.896C72.7298 176.894 72.6738 176.876 72.6253 176.845C57.408 169.396 41.242 164.066 24.5781 161.005C24.4961 160.989 24.4206 160.949 24.3611 160.891C24.3016 160.832 24.2606 160.757 24.2433 160.675C24.2261 160.593 24.2332 160.508 24.2639 160.43C24.2946 160.352 24.3475 160.285 24.416 160.237C31.6615 155.433 33.0696 143.818 34.2046 134.481C34.3924 132.911 34.5716 131.401 34.7764 129.967C39.2654 98.2028 69.9114 77.3539 94.5153 60.5929L97.4767 58.5789C99.6204 57.0662 101.842 55.6675 104.133 54.3886L104.731 54.0643C107.291 52.6818 111.976 50.113 114.895 51.0603C115.324 51.1896 115.721 51.4086 116.06 51.7028C116.398 51.9971 116.67 52.3598 116.858 52.7671C117.873 54.9092 117.156 57.7766 115.962 60.4052C116.013 60.3369 116.073 60.2771 116.132 60.2089C116.773 59.378 117.655 58.7666 118.658 58.4594C119.063 58.3757 119.48 58.3765 119.884 58.4617C120.287 58.5469 120.669 58.7146 121.005 58.9544C121.473 59.2817 121.871 59.6996 122.174 60.1834C122.478 60.6671 122.681 61.2069 122.772 61.7706C123.045 63.5969 122.311 65.3635 121.483 67.0106C120.53 68.887 119.461 70.7025 118.283 72.4468C119.563 71.491 120.758 70.9789 121.697 71.3374C122.635 71.6958 123.164 72.9759 123.122 75.1607C123.043 78.8947 121.89 82.527 119.802 85.6235C120.442 85.1797 121.082 84.7701 121.739 84.369C122.045 84.134 122.397 83.9668 122.772 83.8785C123.147 83.7902 123.537 83.7828 123.915 83.8569C124.332 84.0346 124.693 84.3222 124.959 84.689C125.225 85.0557 125.386 85.4879 125.426 85.9393C126.365 90.1466 124.752 93.3384 123.045 96.7179C122.61 97.5713 122.192 98.4674 121.748 99.3805C121.219 100.567 120.758 101.753 120.314 102.905C119.518 105.122 118.538 107.268 117.387 109.323C109.791 122.243 102.452 133.645 94.942 144.185C93.9435 145.593 88.6524 153.572 83.5319 161.253L76.3974 171.963C73.5384 176.23 73.0861 176.896 72.7874 176.896ZM25.7132 160.357C41.982 163.434 57.7674 168.669 72.6509 175.923C73.6408 174.498 78.2749 167.534 82.7724 160.784C87.8928 153.103 93.184 145.123 94.1996 143.715C101.693 133.193 109.015 121.808 116.602 108.922C117.729 106.902 118.689 104.793 119.469 102.615C119.913 101.463 120.382 100.26 120.92 99.0562C121.33 98.126 121.773 97.2299 122.226 96.3595C123.873 93.1165 125.417 90.0613 124.547 86.1185C124.419 85.5467 124.146 84.8298 123.608 84.6592C123.346 84.6309 123.08 84.6548 122.827 84.7295C122.573 84.8042 122.337 84.9282 122.132 85.0944C120.343 86.1727 118.652 87.4064 117.08 88.7811C116.995 88.8493 116.887 88.8824 116.779 88.8738C116.67 88.8652 116.569 88.8155 116.496 88.7348C116.423 88.6542 116.384 88.5487 116.386 88.4399C116.388 88.3311 116.432 88.2273 116.508 88.1496C118.268 86.462 119.678 84.4438 120.658 82.2107C121.638 79.9775 122.167 77.5731 122.217 75.1351C122.217 73.4282 121.944 72.3615 121.364 72.1225C120.246 71.6958 117.95 73.4368 114.477 77.3369L114.4 77.4307C114.36 77.4707 114.313 77.5025 114.261 77.5242C114.209 77.5458 114.153 77.557 114.097 77.557C114.041 77.557 113.985 77.5458 113.933 77.5242C113.881 77.5025 113.834 77.4707 113.794 77.4307C113.753 77.3924 113.721 77.3462 113.698 77.2948C113.676 77.2434 113.665 77.188 113.665 77.1321C113.665 77.0761 113.676 77.0207 113.698 76.9693C113.721 76.9179 113.753 76.8717 113.794 76.8334C116.533 73.7289 118.865 70.2874 120.732 66.5924C121.5 65.0733 122.174 63.4518 121.935 61.8645C121.861 61.4169 121.698 60.9887 121.457 60.6048C121.215 60.2208 120.899 59.889 120.527 59.6286C120.285 59.4495 120.008 59.3242 119.714 59.2609C119.419 59.1976 119.115 59.1978 118.821 59.2616C118.001 59.5465 117.285 60.0694 116.764 60.7636C115.688 61.9669 114.647 63.2129 113.674 64.5015C112.642 66.0804 111.78 67.1642 111.677 67.2922C111.607 67.3772 111.507 67.4324 111.398 67.4466C111.289 67.4609 111.178 67.4331 111.089 67.369C110.998 67.3054 110.937 67.2087 110.918 67.0999C110.899 66.9912 110.923 66.8794 110.986 66.7887C111.652 65.7902 112.352 64.8173 113.077 63.87C115.279 60.4564 117.395 55.865 116.09 53.117C115.953 52.809 115.752 52.5339 115.501 52.3101C115.249 52.0863 114.952 51.9191 114.63 51.8198C112.07 50.9664 107.385 53.5266 105.14 54.7641L104.543 55.0884C102.281 56.3777 100.09 57.7879 97.9802 59.3128L95.0188 61.3268C70.5344 77.9855 40.059 98.7234 35.6213 130.112C35.4165 131.537 35.2373 133.048 35.0495 134.609C33.923 143.732 32.5746 155.04 25.7132 160.357Z" fill="#231F20"/>
<path d="M96.57 1.03765L38.8116 15.2566C36.4821 15.83 35.0585 18.1834 35.632 20.5129L66.0384 144.026C66.6119 146.356 68.9652 147.779 71.2947 147.206L129.053 132.987C131.383 132.414 132.806 130.06 132.233 127.731L101.826 4.21722C101.253 1.88772 98.8995 0.464175 96.57 1.03765Z" fill="white"/>
<path d="M70.236 147.769C69.3665 147.766 68.514 147.527 67.7696 147.078C67.2316 146.756 66.7634 146.329 66.3926 145.824C66.0218 145.318 65.7559 144.743 65.6105 144.133L35.2119 20.6188C34.9105 19.391 35.1088 18.0937 35.7633 17.012C36.4178 15.9303 37.4749 15.1526 38.7024 14.8498L96.4614 0.631903C97.6903 0.330283 98.9887 0.528362 100.072 1.1827C101.155 1.83703 101.934 2.8942 102.239 4.12236L132.638 127.637C132.937 128.867 132.736 130.165 132.081 131.248C131.425 132.331 130.367 133.11 129.139 133.414L71.3796 147.624C71.0057 147.719 70.6217 147.767 70.236 147.769ZM97.6135 1.34877C97.2944 1.3477 96.9764 1.38495 96.6662 1.45971L38.9072 15.6776C37.8991 15.9259 37.0309 16.5642 36.4932 17.4524C35.9556 18.3405 35.7925 19.4057 36.0397 20.414L66.4383 143.928C66.6866 144.937 67.325 145.805 68.2131 146.342C69.1012 146.88 70.1664 147.043 71.1747 146.796L128.934 132.587C129.943 132.336 130.812 131.697 131.351 130.807C131.89 129.918 132.055 128.852 131.81 127.842L101.411 4.32718C101.203 3.47727 100.715 2.72183 100.027 2.18181C99.3384 1.6418 98.4885 1.34846 97.6135 1.34877Z" fill="#231F20"/>
<path d="M100.24 12.7812L40.998 27.3652L65.9984 128.919L125.24 114.335L100.24 12.7812Z" fill="#8C8896"/>
<path d="M102.475 125.183L91.2047 127.957C89.7722 128.31 88.8968 129.757 89.2495 131.189L90.3103 135.499C90.6629 136.931 92.1101 137.806 93.5426 137.454L104.813 134.679C106.245 134.327 107.12 132.88 106.768 131.447L105.707 127.138C105.354 125.705 103.907 124.83 102.475 125.183Z" fill="white"/>
<path d="M92.894 137.974C92.201 137.972 91.5285 137.739 90.9839 137.31C90.4393 136.882 90.0542 136.283 89.89 135.61L88.8232 131.3C88.6403 130.506 88.7766 129.672 89.2028 128.977C89.6291 128.283 90.311 127.784 91.1018 127.588L102.375 124.814C103.173 124.621 104.015 124.751 104.717 125.176C105.419 125.602 105.924 126.287 106.122 127.084L107.18 131.351C107.376 132.149 107.247 132.992 106.821 133.694C106.395 134.397 105.708 134.902 104.91 135.098L93.6621 137.88C93.4109 137.942 93.1529 137.974 92.894 137.974ZM103.135 125.539C102.951 125.541 102.768 125.564 102.589 125.608L91.3237 128.381C91.0376 128.451 90.7681 128.576 90.5308 128.751C90.2935 128.925 90.0931 129.145 89.9412 129.397C89.7884 129.651 89.6872 129.932 89.6433 130.225C89.5993 130.518 89.6136 130.816 89.6852 131.104L90.7434 135.371C90.8134 135.657 90.9391 135.927 91.1134 136.165C91.2877 136.402 91.5071 136.603 91.7591 136.756C92.0112 136.909 92.2908 137.011 92.5822 137.056C92.8736 137.101 93.1709 137.088 93.4572 137.018L104.722 134.244C105.009 134.174 105.278 134.048 105.516 133.874C105.754 133.7 105.955 133.48 106.108 133.228C106.261 132.976 106.363 132.697 106.408 132.405C106.452 132.114 106.439 131.817 106.369 131.53L105.311 127.263C105.242 126.977 105.116 126.708 104.942 126.47C104.767 126.233 104.548 126.033 104.296 125.881C103.941 125.656 103.529 125.538 103.109 125.539H103.135Z" fill="#E6E7E8"/>
<path d="M58.2112 16.9756C58.1189 16.9691 58.031 16.9333 57.9604 16.8735C57.8898 16.8136 57.8401 16.7328 57.8186 16.6428C57.8046 16.5879 57.8017 16.5307 57.8101 16.4746C57.8184 16.4186 57.8379 16.3647 57.8673 16.3163C57.8967 16.2678 57.9354 16.2257 57.9813 16.1924C58.0272 16.159 58.0792 16.1352 58.1344 16.1222L74.9978 11.9746C75.0522 11.9605 75.1088 11.9573 75.1644 11.9651C75.22 11.9729 75.2735 11.9916 75.3219 12.0202C75.3702 12.0487 75.4125 12.0865 75.4462 12.1314C75.4799 12.1763 75.5045 12.2274 75.5184 12.2819C75.5443 12.3927 75.5257 12.5092 75.4667 12.6065C75.4077 12.7039 75.3129 12.7742 75.2026 12.8024L58.3392 16.95L58.2112 16.9756Z" fill="#E6E7E8"/>
<path d="M77.4473 12.2398C77.3523 12.2403 77.26 12.2085 77.1856 12.1495C77.1111 12.0906 77.059 12.0081 77.0377 11.9155C77.0115 11.8059 77.0289 11.6903 77.0862 11.5932C77.1435 11.4961 77.2362 11.425 77.3449 11.395L79.615 10.8402C79.7281 10.8131 79.8475 10.832 79.9467 10.8928C80.0459 10.9536 80.1169 11.0514 80.1441 11.1645C80.1713 11.2777 80.1523 11.397 80.0915 11.4963C80.0307 11.5955 79.933 11.6665 79.8198 11.6937L77.5497 12.2569L77.4473 12.2398Z" fill="#E6E7E8"/>
<path d="M107.267 92.571L72.1649 101.212C69.0574 101.977 67.1584 105.117 67.9234 108.224L68.5435 110.744C69.3086 113.851 72.4479 115.75 75.5554 114.985L110.658 106.344C113.765 105.578 115.664 102.439 114.899 99.3317L114.279 96.8125C113.514 93.705 110.375 91.806 107.267 92.571Z" fill="white"/>
<path d="M74.1529 115.639C72.764 115.635 71.4163 115.167 70.3245 114.308C69.2326 113.45 68.4593 112.251 68.1278 110.902L67.5134 108.342C67.1215 106.741 67.3801 105.049 68.2327 103.639C69.0853 102.228 70.4623 101.212 72.062 100.815L107.171 92.1783C107.964 91.9831 108.787 91.946 109.594 92.069C110.4 92.192 111.175 92.4728 111.873 92.8952C112.571 93.3176 113.179 93.8734 113.663 94.5308C114.146 95.1883 114.495 95.9346 114.69 96.727L115.313 99.2872C115.705 100.887 115.446 102.577 114.593 103.987C113.74 105.396 112.363 106.41 110.764 106.806L75.6549 115.417C75.1648 115.55 74.6606 115.624 74.1529 115.639ZM108.665 92.8866C108.231 92.8901 107.798 92.9445 107.376 93.0487L72.2669 101.643C71.5822 101.811 70.9374 102.112 70.3694 102.529C69.8014 102.947 69.3213 103.472 68.9566 104.075C68.592 104.679 68.3499 105.348 68.2443 106.045C68.1387 106.742 68.1716 107.453 68.3412 108.137L68.9556 110.697C69.2987 112.078 70.1748 113.266 71.3921 114.002C72.6093 114.737 74.0685 114.961 75.4501 114.623L110.56 105.978C111.939 105.637 113.127 104.762 113.863 103.547C114.599 102.331 114.823 100.873 114.485 99.492L113.862 96.9318C113.572 95.7702 112.904 94.7381 111.963 93.998C111.023 93.2579 109.862 92.8519 108.665 92.8439V92.8866Z" fill="#231F20"/>
<path d="M105.87 62.8928L59.5137 74.3047L61.5639 82.6328L107.92 71.221L105.87 62.8928Z" fill="white"/>
<path d="M65.8834 78.908C66.68 78.908 67.3257 78.2622 67.3257 77.4657C67.3257 76.6692 66.68 76.0234 65.8834 76.0234C65.0869 76.0234 64.4412 76.6692 64.4412 77.4657C64.4412 78.2622 65.0869 78.908 65.8834 78.908Z" fill="#8C8896"/>
<path d="M71.1746 77.6111C71.9711 77.6111 72.6168 76.9654 72.6168 76.1688C72.6168 75.3723 71.9711 74.7266 71.1746 74.7266C70.378 74.7266 69.7323 75.3723 69.7323 76.1688C69.7323 76.9654 70.378 77.6111 71.1746 77.6111Z" fill="#8C8896"/>
<path d="M76.457 76.3045C77.2536 76.3045 77.8993 75.6587 77.8993 74.8622C77.8993 74.0656 77.2536 73.4199 76.457 73.4199C75.6605 73.4199 75.0148 74.0656 75.0148 74.8622C75.0148 75.6587 75.6605 76.3045 76.457 76.3045Z" fill="#8C8896"/>
<path d="M81.7487 75.0076C82.5452 75.0076 83.1909 74.3619 83.1909 73.5653C83.1909 72.7688 82.5452 72.123 81.7487 72.123C80.9521 72.123 80.3064 72.7688 80.3064 73.5653C80.3064 74.3619 80.9521 75.0076 81.7487 75.0076Z" fill="#8C8896"/>
<path d="M109.206 76.4729L62.8503 87.8848L64.9006 96.2129L111.256 84.8011L109.206 76.4729Z" fill="white"/>
<path d="M69.2203 92.4841C70.0169 92.4841 70.6626 91.8384 70.6626 91.0419C70.6626 90.2453 70.0169 89.5996 69.2203 89.5996C68.4238 89.5996 67.7781 90.2453 67.7781 91.0419C67.7781 91.8384 68.4238 92.4841 69.2203 92.4841Z" fill="#8C8896"/>
<path d="M74.5115 91.1795C75.308 91.1795 75.9538 90.5337 75.9538 89.7372C75.9538 88.9406 75.308 88.2949 74.5115 88.2949C73.7149 88.2949 73.0692 88.9406 73.0692 89.7372C73.0692 90.5337 73.7149 91.1795 74.5115 91.1795Z" fill="#8C8896"/>
<path d="M79.8026 89.8826C80.5992 89.8826 81.2449 89.2369 81.2449 88.4403C81.2449 87.6438 80.5992 86.998 79.8026 86.998C79.0061 86.998 78.3604 87.6438 78.3604 88.4403C78.3604 89.2369 79.0061 89.8826 79.8026 89.8826Z" fill="#8C8896"/>
<path d="M85.0851 88.5857C85.8816 88.5857 86.5274 87.94 86.5274 87.1434C86.5274 86.3469 85.8816 85.7012 85.0851 85.7012C84.2885 85.7012 83.6428 86.3469 83.6428 87.1434C83.6428 87.94 84.2885 88.5857 85.0851 88.5857Z" fill="#8C8896"/>
<path d="M85.8254 37.3932L65.208 42.4688L68.4455 55.6198L89.0629 50.5442L85.8254 37.3932Z" fill="white"/>
<path d="M70.6199 42.6541C70.5476 42.6526 70.4769 42.632 70.4151 42.5944C70.328 42.5395 70.2642 42.4544 70.2359 42.3554L69.2289 38.259C69.0492 37.5327 69.0148 36.7782 69.1274 36.0385C69.2401 35.2989 69.4977 34.5888 69.8854 33.949C70.2731 33.3091 70.7833 32.7521 71.3868 32.3099C71.9903 31.8677 72.6751 31.5489 73.402 31.372C74.8676 31.0113 76.4164 31.2474 77.7078 32.0284C78.9993 32.8094 79.9278 34.0713 80.2891 35.5366L81.2961 39.633C81.3195 39.7325 81.3032 39.8372 81.2506 39.9249C81.198 40.0125 81.1133 40.0762 81.0145 40.1024L70.7138 42.6626L70.6199 42.6541ZM74.7675 32.0035C74.3709 32.0026 73.9756 32.0484 73.5898 32.14C72.9605 32.2948 72.368 32.5723 71.8462 32.9566C71.3244 33.3409 70.8835 33.8244 70.5489 34.3794C70.2144 34.9343 69.9926 35.5499 69.8964 36.1908C69.8002 36.8316 69.8315 37.4852 69.9884 38.1139L70.9016 41.8348L80.4512 39.4794L79.5381 35.7671C79.2812 34.6951 78.6709 33.7408 77.8054 33.058C76.94 32.3753 75.8698 32.0038 74.7675 32.0035Z" fill="white"/>
<path d="M76.628 46.4958C77.7498 46.4958 78.6592 45.5865 78.6592 44.4647C78.6592 43.343 77.7498 42.4336 76.628 42.4336C75.5063 42.4336 74.5969 43.343 74.5969 44.4647C74.5969 45.5865 75.5063 46.4958 76.628 46.4958Z" fill="#8C8896"/>
<path d="M77.2711 44.6994L76.1689 44.9707L77.3012 49.5698L78.4033 49.2985L77.2711 44.6994Z" fill="#8C8896"/>
<path d="M80.9549 63.3848H80.8525H80.6989L80.4172 63.3165C73.7845 62.2177 67.6793 59.02 62.9991 54.1935C60.7837 51.8441 58.9805 49.1378 57.6652 46.1885C56.9113 44.549 56.339 42.832 55.9584 41.068C55.9015 40.8576 55.9273 40.6334 56.0304 40.4414C56.1336 40.2494 56.3063 40.1041 56.5131 40.0354C56.863 39.8818 57.2385 39.694 57.6908 39.4465C59.4971 38.5487 60.8922 36.9949 61.5909 35.1027C62.0866 33.7067 62.1106 32.1867 61.6592 30.7759C61.6194 30.6737 61.6015 30.5643 61.6065 30.4547C61.6116 30.3452 61.6395 30.2379 61.6886 30.1398C61.7376 30.0417 61.8067 29.955 61.8913 29.8852C61.9759 29.8155 62.0742 29.7642 62.1798 29.7347L64.6462 28.5911C65.6959 28.1303 66.7541 27.6609 67.8209 27.2171C70.0313 26.2474 72.3716 25.6062 74.7676 25.314C76.4745 25.1348 78.1813 24.9983 79.8881 24.8702L82.5678 24.6654C82.6632 24.6471 82.7614 24.648 82.8564 24.6683C82.9514 24.6886 83.0414 24.7278 83.121 24.7835C83.2006 24.8392 83.2682 24.9103 83.3198 24.9927C83.3713 25.075 83.4059 25.1669 83.4212 25.2628L83.5151 25.6213C83.6071 26.0413 83.7356 26.4525 83.8992 26.8502C84.2694 27.7008 84.8059 28.4689 85.4771 29.1093C86.1483 29.7498 86.9407 30.2496 87.8078 30.5796C89.188 31.0963 90.667 31.2946 92.1346 31.1599C92.2689 31.1343 92.407 31.1364 92.5405 31.1659C92.674 31.1954 92.8001 31.2518 92.9111 31.3317C93.0221 31.4115 93.1157 31.5132 93.1861 31.6303C93.2566 31.7475 93.3024 31.8778 93.3208 32.0133C94.0725 34.7685 94.3609 37.6294 94.1743 40.4792C93.7305 48.2282 90.4704 54.9872 84.488 60.7051C83.848 61.3024 83.1738 61.8742 82.5166 62.4119L81.6035 63.18C81.5536 63.2226 81.4955 63.2546 81.4328 63.2738L81.0232 63.3677L80.9549 63.3848ZM62.5126 30.4686C63.0055 32.0522 62.9726 33.7527 62.4188 35.316C61.6552 37.3996 60.1305 39.1165 58.1517 40.1207C57.7478 40.353 57.3318 40.5638 56.9057 40.7523C56.8695 40.7648 56.8351 40.782 56.8033 40.8035C57.1928 42.521 57.7502 44.196 58.4674 45.8045C59.7416 48.668 61.4933 51.2941 63.6477 53.5705C68.2026 58.2625 74.1439 61.3677 80.5965 62.429C80.7159 62.429 80.8269 62.4802 80.9378 62.5058H80.9805H81.1853L82.0387 61.7889C82.6873 61.2512 83.3615 60.688 83.976 60.0821C89.7962 54.569 92.9709 47.9551 93.3635 40.4536C93.5326 37.6971 93.2443 34.9316 92.5101 32.2693C92.4986 32.1992 92.4725 32.1323 92.4333 32.0731C92.3545 32.0565 92.2731 32.0565 92.1943 32.0731C90.5988 32.2134 88.992 31.9947 87.492 31.433C85.543 30.6745 83.9745 29.1736 83.1311 27.2598C82.9501 26.8169 82.8046 26.3603 82.6958 25.8943L82.6105 25.5786L79.9308 25.7919C78.2752 25.9199 76.5171 26.0565 74.8786 26.2357C72.5623 26.5214 70.2998 27.1423 68.1622 28.0791C67.104 28.5229 66.0543 28.9752 65.0046 29.436C64.1796 29.8001 63.3518 30.1586 62.5212 30.5113L62.5126 30.4686Z" fill="white"/>
<path d="M33.1295 144.264C33.1295 144.264 39.7947 88.5107 46.3233 82.4088C54.0893 75.1633 61.1641 70.2477 62.4613 74.3867C63.7585 78.5258 64.9618 85.4299 54.3454 93.1618L55.8986 106.961C55.8986 106.961 66.3529 114.207 60.9081 136.976" fill="white"/>
<path d="M33.1292 144.654H33.0695C32.9667 144.641 32.8731 144.589 32.8091 144.507C32.7452 144.425 32.7161 144.322 32.7281 144.219C33.0012 141.94 39.4872 88.2608 46.0499 82.1333C53.5599 75.1268 58.6548 71.8923 61.1809 72.5836C61.5824 72.6942 61.9466 72.9112 62.235 73.2116C62.5234 73.512 62.7253 73.8847 62.8195 74.2904C65.7638 83.678 60.1056 89.4385 54.7547 93.3898L56.2653 106.797C57.5795 107.804 66.4209 115.519 61.2748 137.085C61.2638 137.135 61.2428 137.182 61.213 137.224C61.1833 137.266 61.1454 137.302 61.1016 137.329C61.0578 137.356 61.009 137.374 60.9581 137.382C60.9073 137.39 60.8553 137.387 60.8054 137.375C60.7062 137.348 60.6208 137.285 60.5668 137.198C60.5128 137.111 60.4944 137.006 60.5153 136.905C65.832 114.648 55.7703 107.403 55.6679 107.335C55.6234 107.301 55.5862 107.259 55.5583 107.21C55.5305 107.162 55.5126 107.108 55.5057 107.053L53.9525 93.2532C53.9447 93.1853 53.9547 93.1165 53.9817 93.0536C54.0086 92.9907 54.0515 92.936 54.1061 92.8948C63.9972 85.6579 63.562 79.2402 62.077 74.5208C62.0161 74.2451 61.8828 73.9906 61.6908 73.7836C61.4988 73.5766 61.255 73.4245 60.9846 73.3431C58.7914 72.7628 53.6794 76.0911 46.5876 82.7307C40.2296 88.6619 33.573 143.784 33.5047 144.339C33.4888 144.427 33.4426 144.507 33.374 144.564C33.3054 144.622 33.2188 144.654 33.1292 144.654Z" fill="#231F20"/>
<path d="M0 181.523L25.5597 150.51L78.3604 173.799L62.8027 208.098L0 181.523Z" fill="#231F20"/>
<path d="M196.379 170.565C196.379 170.565 176.511 131.47 161.543 113.856C159.494 111.449 156.891 111.048 155.048 112.294C152.88 113.762 152.795 118.686 152.795 118.686C152.795 118.686 147.111 115.392 144.389 116.075C141.667 116.758 141.351 121.067 141.351 121.067C141.351 121.067 135.283 119.062 132.817 121.221C130.35 123.38 130.256 127.314 130.256 127.314C130.256 127.314 98.2619 101.601 94.7373 99.4247C91.2127 97.2485 84.889 101.132 88.0125 105.672C89.9497 108.505 106.096 124.583 111.319 129.695C116.542 134.807 128.695 148.675 130.094 152.737C131.494 156.8 132.612 161.468 124.317 162.04C116.021 162.611 108.639 164.088 105.004 167.16C101.368 170.232 98.9788 174.883 100.797 175.797C102.614 176.71 131.938 173.356 143.075 177.896C154.212 182.436 168.677 199.044 168.677 199.044L196.379 170.565Z" fill="white"/>
<path d="M168.669 199.503C168.609 199.501 168.55 199.488 168.496 199.463C168.442 199.438 168.393 199.402 168.353 199.358C168.208 199.187 153.794 182.776 142.887 178.33C135.258 175.215 118.778 175.855 108.93 176.239C103.596 176.444 101.249 176.521 100.583 176.239C100.343 176.119 100.139 175.939 99.989 175.716C99.8395 175.493 99.7502 175.235 99.7299 174.967C99.4995 173.022 101.727 169.403 104.688 166.903C108.008 164.103 114.588 162.354 124.257 161.688C127.201 161.484 129.139 160.733 130.001 159.444C131.118 157.737 130.444 155.322 129.659 152.949C128.345 149.024 116.465 135.378 111.021 130.052C105.576 124.727 89.617 108.811 87.6883 105.926C87.0405 105.107 86.7157 104.078 86.7754 103.036C86.8352 101.993 87.2754 101.008 88.0126 100.268C89.5999 98.6126 92.7064 97.708 94.985 99.0734C98.2621 101.079 125.264 122.756 129.89 126.477C130.076 124.364 131.011 122.387 132.527 120.904C134.771 118.958 139.473 120.05 141.061 120.511C141.24 119.274 141.914 116.244 144.355 115.655C146.796 115.066 150.909 117.14 152.471 117.977C152.59 116.517 153.051 113.18 154.877 111.943C157.028 110.484 159.861 111.141 161.935 113.581C176.768 131.025 196.626 169.975 196.831 170.368C196.87 170.448 196.883 170.539 196.869 170.627C196.856 170.715 196.816 170.797 196.754 170.863L169.044 199.375C168.995 199.423 168.935 199.459 168.871 199.481C168.806 199.503 168.737 199.51 168.669 199.503ZM122.132 175.053C130.077 175.053 138.347 175.556 143.194 177.536C153.538 181.752 166.475 195.97 168.686 198.445L195.858 170.487C194.058 166.979 175.334 130.735 161.21 114.162C159.443 112.079 157.062 111.482 155.287 112.677C153.666 113.786 153.247 117.413 153.222 118.728C153.221 118.801 153.201 118.872 153.163 118.935C153.126 118.998 153.072 119.05 153.009 119.086C152.944 119.123 152.87 119.143 152.795 119.143C152.72 119.143 152.647 119.123 152.582 119.086C152.522 119.086 147.018 115.886 144.491 116.526C142.102 117.123 141.786 121.1 141.778 121.134C141.773 121.198 141.754 121.261 141.721 121.317C141.689 121.372 141.645 121.42 141.591 121.456C141.538 121.492 141.477 121.516 141.413 121.525C141.349 121.535 141.284 121.529 141.223 121.51C141.163 121.51 135.351 119.615 133.064 121.586C130.777 123.558 130.649 127.321 130.649 127.364C130.646 127.443 130.621 127.52 130.578 127.586C130.534 127.652 130.473 127.705 130.402 127.74C130.33 127.774 130.251 127.787 130.172 127.778C130.094 127.769 130.019 127.738 129.958 127.688C129.634 127.432 97.9719 101.966 94.5156 99.8415C92.6039 98.6723 89.9584 99.4831 88.61 100.9C88.0065 101.496 87.6469 102.296 87.6011 103.143C87.5554 103.991 87.8268 104.825 88.3625 105.483C90.2571 108.256 106.284 124.258 111.618 129.446C116.508 134.234 129.011 148.332 130.47 152.685C131.323 155.245 132.049 157.933 130.709 159.922C129.676 161.466 127.585 162.328 124.308 162.55C114.827 163.199 108.418 164.889 105.243 167.56C102.282 170.06 100.404 173.423 100.575 174.874C100.576 175 100.611 175.125 100.677 175.233C100.744 175.341 100.838 175.429 100.95 175.488C101.437 175.718 105.055 175.573 108.887 175.428C112.719 175.283 117.319 175.053 122.132 175.053Z" fill="#231F20"/>
<path d="M193.494 159.264L153.128 192.188L173.149 221.819L219.754 183.117L193.494 159.264Z" fill="#231F20"/>
<path d="M186.846 21.0137H135.087V59.2039H186.846V21.0137Z" fill="white"/>
<path d="M186.846 59.6276H135.087C134.973 59.6276 134.865 59.5827 134.785 59.5027C134.705 59.4226 134.66 59.3141 134.66 59.2009V21.0107C134.66 20.8975 134.705 20.789 134.785 20.709C134.865 20.6289 134.973 20.584 135.087 20.584H186.846C186.959 20.584 187.068 20.6289 187.148 20.709C187.228 20.789 187.273 20.8975 187.273 21.0107V59.2009C187.273 59.3141 187.228 59.4226 187.148 59.5027C187.068 59.5827 186.959 59.6276 186.846 59.6276ZM135.513 58.7742H186.419V21.4374H135.479L135.513 58.7742Z" fill="#E6E7E8"/>
<path d="M178.705 33.1391C178.554 33.3785 178.385 33.6067 178.201 33.8218L160.322 51.6752C160.232 51.8198 160.106 51.939 159.957 52.0217C159.807 52.1043 159.639 52.1477 159.469 52.1477C159.298 52.1477 159.13 52.1043 158.981 52.0217C158.832 51.939 158.706 51.8198 158.615 51.6752L148.579 41.2807C148.452 41.1856 148.35 41.0611 148.282 40.9179C148.213 40.7748 148.181 40.6171 148.186 40.4585C148.192 40.3 148.237 40.1452 148.315 40.0074C148.394 39.8697 148.505 39.7531 148.639 39.6677L151.199 37.3976C151.289 37.2825 151.403 37.1892 151.534 37.1251C151.665 37.061 151.809 37.0276 151.954 37.0276C152.1 37.0276 152.244 37.061 152.375 37.1251C152.506 37.1892 152.62 37.2825 152.71 37.3976L158.684 43.4569C158.774 43.6015 158.9 43.7207 159.049 43.8033C159.199 43.886 159.366 43.9293 159.537 43.9293C159.708 43.9293 159.876 43.886 160.025 43.8033C160.174 43.7207 160.3 43.6015 160.39 43.4569L174.284 29.6316C174.375 29.4961 174.499 29.385 174.643 29.3083C174.787 29.2315 174.948 29.1914 175.112 29.1914C175.275 29.1914 175.436 29.2315 175.581 29.3083C175.725 29.385 175.848 29.4961 175.94 29.6316C176.725 30.4253 177.51 31.2104 178.287 32.0041C178.463 32.2152 178.625 32.4375 178.773 32.6697L178.705 33.1391Z" fill="#8C8896"/>
<path d="M134.626 80.1615C134.519 80.1582 134.418 80.1166 134.339 80.0446C134.261 79.9725 134.211 79.8747 134.199 79.769C134.192 79.6576 134.227 79.5476 134.299 79.4618C134.37 79.3761 134.472 79.321 134.583 79.3081C138.978 78.8985 142.426 77.1234 144.824 74.0426C150.397 66.891 148.63 54.9261 148.613 54.8067C148.605 54.7512 148.607 54.6946 148.621 54.6401C148.634 54.5856 148.658 54.5342 148.691 54.4891C148.725 54.4439 148.767 54.4057 148.815 54.3767C148.863 54.3477 148.916 54.3285 148.972 54.3202C149.083 54.3054 149.196 54.3344 149.287 54.4013C149.378 54.4681 149.439 54.5675 149.458 54.6786C149.535 55.1822 151.301 67.1214 145.498 74.5632C142.938 77.8403 139.294 79.6836 134.66 80.1615H134.626Z" fill="#E6E7E8"/>
<path d="M65.8239 185.089C65.7647 185.101 65.7038 185.101 65.6447 185.089L21.7536 164.607C21.6965 164.588 21.6439 164.557 21.5995 164.517C21.5551 164.476 21.5198 164.426 21.496 164.371C21.4721 164.316 21.4602 164.256 21.4611 164.196C21.462 164.136 21.4756 164.076 21.5011 164.022C21.5266 163.967 21.5633 163.918 21.6089 163.879C21.6545 163.84 21.7079 163.81 21.7656 163.793C21.8233 163.776 21.884 163.771 21.9438 163.779C22.0035 163.787 22.0608 163.807 22.1121 163.839L66.0031 184.321C66.0543 184.345 66.1004 184.379 66.1385 184.42C66.1765 184.462 66.206 184.511 66.225 184.564C66.2441 184.617 66.2524 184.674 66.2494 184.73C66.2465 184.787 66.2324 184.842 66.2079 184.893C66.1678 184.957 66.1108 185.01 66.0432 185.044C65.9755 185.079 65.8997 185.094 65.8239 185.089Z" fill="white"/>
<path d="M161.62 197.566C161.553 197.565 161.488 197.549 161.429 197.52C161.37 197.49 161.318 197.447 161.278 197.395C161.21 197.304 161.181 197.191 161.197 197.079C161.213 196.967 161.273 196.865 161.364 196.798L196.123 170.256C196.213 170.188 196.326 170.157 196.438 170.171C196.55 170.186 196.651 170.244 196.72 170.333C196.789 170.423 196.82 170.536 196.805 170.648C196.791 170.76 196.733 170.861 196.644 170.931L161.876 197.523C161.797 197.565 161.707 197.58 161.62 197.566Z" fill="white"/>
</svg>
