<svg width="157" height="195" viewBox="0 0 157 195" fill="none" xmlns="http://www.w3.org/2000/svg">
<path d="M131.928 152.455H131.729C130.816 152.406 129.96 151.995 129.348 151.313C128.736 150.632 128.419 149.735 128.466 148.819L133.309 57.7801C133.358 56.8616 133.769 56.0003 134.451 55.3858C135.133 54.7712 136.031 54.4537 136.947 54.5031C137.863 54.5524 138.721 54.9646 139.334 55.649C139.947 56.3334 140.263 57.2339 140.214 58.1524L135.372 149.182C135.323 150.066 134.939 150.897 134.299 151.506C133.658 152.114 132.81 152.454 131.928 152.455Z" fill="#231F20"/>
<path d="M17.6439 119.242C15.9442 119.27 14.2544 118.976 12.6634 118.376C6.36221 115.9 4.31651 111.805 3.71229 108.852C1.50257 97.978 14.6055 84.714 16.1074 83.2421C16.4283 82.9111 16.8119 82.6478 17.2358 82.4677C17.6596 82.2876 18.1151 82.1943 18.5754 82.1934C19.0356 82.1924 19.4915 82.2837 19.9161 82.462C20.3407 82.6403 20.7254 82.902 21.0477 83.2316C21.37 83.5613 21.6233 83.9522 21.7928 84.3815C21.9623 84.8107 22.0445 85.2696 22.0345 85.7312C22.0246 86.1928 21.9228 86.6478 21.735 87.0693C21.5472 87.4908 21.2773 87.8704 20.9412 88.1858C16.3059 92.7572 9.36605 102.039 10.4795 107.476C10.6263 108.186 11.0665 110.35 15.1838 111.969C22.6157 114.896 37.6953 102.974 45.4552 94.7745C46.0945 94.1521 46.9489 93.8017 47.8398 93.7965C48.7308 93.7913 49.5892 94.1318 50.2356 94.7467C50.8821 95.3616 51.2666 96.2033 51.3087 97.096C51.3508 97.9886 51.0473 98.863 50.4616 99.5364C48.3554 101.692 31.3424 119.242 17.6439 119.242Z" fill="#231F20"/>
<path d="M34.1909 45.3035C34.1909 45.3035 26.4223 41.5893 24.4284 48.1347C22.4345 54.6801 22.0461 74.2038 20.2161 76.4462C18.2725 78.5552 16.1843 80.5254 13.9668 82.3423L22.3396 99.0262L40.915 90.6453C40.915 90.6453 34.4412 54.3165 34.1909 45.3035Z" fill="white"/>
<path d="M22.2964 99.45C22.2125 99.4487 22.1305 99.4246 22.0591 99.3805C21.9877 99.3363 21.9295 99.2736 21.8907 99.199L13.5266 82.5237C13.48 82.4337 13.4657 82.3303 13.4861 82.231C13.5066 82.1317 13.5605 82.0424 13.6388 81.9783C15.8315 80.1732 17.8992 78.2206 19.8277 76.1341C20.6909 75.0779 21.2778 69 21.8389 63.1472C22.4 57.2944 22.9869 51.1906 23.9623 48.0044C24.163 47.2004 24.5398 46.4514 25.0654 45.8119C25.591 45.1724 26.2521 44.6584 27.0007 44.3075C30.1512 42.9222 34.1736 44.8183 34.3462 44.9049C34.4186 44.9395 34.4801 44.9933 34.5243 45.0604C34.5684 45.1275 34.5934 45.2055 34.5966 45.2858C34.8814 54.1689 41.2516 90.2033 41.312 90.5583C41.3304 90.6578 41.3149 90.7606 41.2679 90.8501C41.2209 90.9397 41.1452 91.0107 41.0531 91.0518L22.4776 99.45C22.4178 99.4619 22.3562 99.4619 22.2964 99.45ZM14.4761 82.4371L22.4949 98.4197L40.3712 90.3505C39.7238 86.6622 34.1045 54.4719 33.7161 45.5715C32.853 45.2079 29.7197 44.0564 27.3546 45.104C26.726 45.4045 26.1721 45.8418 25.7332 46.3839C25.2942 46.9261 24.9812 47.5595 24.8168 48.2382C23.8674 51.3377 23.289 57.3723 22.728 63.2078C22.0029 70.8095 21.485 75.5194 20.5183 76.7056C18.6465 78.7696 16.627 80.6939 14.4761 82.4631V82.4371Z" fill="#231F20"/>
<path d="M76.4862 171.564C75.6548 171.573 74.8478 171.282 74.2135 170.743C73.5792 170.203 73.1602 169.453 73.0335 168.629L62.1662 97.3648C62.0277 96.4567 62.2545 95.5305 62.7968 94.7901C63.3391 94.0497 64.1524 93.5557 65.0578 93.4168C65.9632 93.2779 66.8866 93.5054 67.6247 94.0493C68.3629 94.5933 68.8554 95.4091 68.9939 96.3172L79.9389 167.581C80.0076 168.031 79.9872 168.489 79.8791 168.931C79.7709 169.373 79.5771 169.789 79.3085 170.156C79.04 170.522 78.7021 170.832 78.3141 171.068C77.9261 171.304 77.4956 171.46 77.0472 171.529C76.8614 171.555 76.6738 171.567 76.4862 171.564Z" fill="#231F20"/>
<path d="M97.0123 171.563H96.6153C96.1647 171.511 95.7286 171.371 95.332 171.15C94.9354 170.929 94.5861 170.632 94.3039 170.276C94.0217 169.92 93.8123 169.512 93.6876 169.074C93.5628 168.637 93.5252 168.179 93.5769 167.727C96.106 145.745 99.9989 109.823 99.8608 105.502C99.6805 104.717 99.7787 103.894 100.139 103.173C100.498 102.453 101.097 101.881 101.832 101.556C102.567 101.231 103.392 101.173 104.165 101.393C104.938 101.612 105.611 102.095 106.067 102.758C107.068 104.204 107.37 104.637 103.892 137.294C102.243 152.809 100.439 168.368 100.439 168.524C100.336 169.362 99.9306 170.134 99.2994 170.694C98.6682 171.254 97.8548 171.563 97.0123 171.563Z" fill="#231F20"/>
<path d="M85.3252 195C115.849 195 140.594 192.05 140.594 188.411C140.594 184.772 115.849 181.822 85.3252 181.822C54.8011 181.822 30.0564 184.772 30.0564 188.411C30.0564 192.05 54.8011 195 85.3252 195Z" fill="#E6E7E8"/>
<path d="M83.901 125.2C115.102 125.2 140.395 99.8295 140.395 68.5336C140.395 37.2376 115.102 11.8672 83.901 11.8672C52.6999 11.8672 27.4065 37.2376 27.4065 68.5336C27.4065 99.8295 52.6999 125.2 83.901 125.2Z" fill="#EB9C9B"/>
<path d="M83.9613 11.8502C98.484 11.8414 112.454 17.435 122.978 27.4727C133.503 37.5105 139.776 51.2236 140.498 65.7726C141.22 80.3215 136.336 94.5918 126.858 105.629C117.38 116.665 104.033 123.623 89.5812 125.062C75.1294 126.5 60.6797 122.308 49.224 113.355C37.7684 104.401 30.1843 91.3718 28.0422 76.9642C25.9001 62.5566 29.3641 47.8745 37.7169 35.958C46.0696 24.0416 58.6713 15.8035 72.9127 12.9498C76.5506 12.2204 80.2513 11.8521 83.9613 11.8502ZM83.9613 10.9844C68.7376 10.9683 54.1311 17.0189 43.3551 27.805C32.579 38.5911 26.5161 53.2293 26.5 68.4993C26.484 83.7692 32.5162 98.4202 43.2696 109.229C54.023 120.038 68.6168 126.119 83.8404 126.135C91.3784 126.143 98.8441 124.662 105.811 121.776C112.779 118.89 119.111 114.655 124.447 109.315C129.782 103.974 134.017 97.6314 136.909 90.649C139.801 83.6667 141.294 76.1814 141.302 68.6205C141.31 61.0596 139.833 53.5711 136.955 46.5827C134.078 39.5943 129.857 33.2427 124.532 27.8907C119.208 22.5387 112.884 18.2911 105.923 15.3903C98.9618 12.4895 91.4992 10.9924 83.9613 10.9844Z" fill="#231F20"/>
<path d="M64.3274 69.0636C66.7567 68.5912 67.82 63.5205 66.7023 57.7379C65.5846 51.9554 62.7092 47.6507 60.2798 48.1231C57.8505 48.5955 56.7872 53.6662 57.9049 59.4488C59.0226 65.2313 61.8981 69.536 64.3274 69.0636Z" fill="#231F20"/>
<path d="M100.807 61.9796C103.236 61.5072 104.3 56.4365 103.182 50.654C102.064 44.8714 99.1889 40.5667 96.7595 41.0391C94.3302 41.5116 93.2669 46.5822 94.3846 52.3648C95.5023 58.1473 98.3778 62.4521 100.807 61.9796Z" fill="#231F20"/>
<path d="M59.9737 111.069C59.674 111.069 59.3837 110.964 59.1523 110.773C58.921 110.582 58.7628 110.317 58.7049 110.022C57.3842 103.346 59.568 96.4286 64.7471 90.5238C69.9261 84.6191 77.4357 80.5932 85.981 78.9048C103.702 75.3724 120.309 83.5975 123.011 97.2338C123.077 97.5782 123.005 97.935 122.809 98.2256C122.613 98.5163 122.31 98.7169 121.967 98.7835C121.623 98.8501 121.268 98.7772 120.978 98.5807C120.688 98.3842 120.488 98.0804 120.422 97.7359C118.005 85.5109 102.761 78.2036 86.4385 81.4503C78.4715 83.0347 71.4539 86.8702 66.6892 92.2468C61.9245 97.6234 60.0687 103.658 61.2253 109.519C61.2913 109.857 61.2211 110.207 61.0302 110.493C60.8392 110.778 60.5431 110.976 60.2068 111.043L59.9737 111.069Z" fill="#231F20"/>
<path d="M23.8294 98.507L15.2727 81.164C14.4882 79.5741 12.5673 78.923 10.9822 79.7099L10.1389 80.1284C8.55379 80.9153 7.90472 82.842 8.68917 84.432L17.2459 101.775C18.0303 103.365 19.9513 104.016 21.5364 103.229L22.3796 102.811C23.9648 102.024 24.6138 100.097 23.8294 98.507Z" fill="white"/>
<path d="M20.1299 104.014C19.4476 104.014 18.779 103.823 18.1994 103.462C17.6198 103.1 17.1524 102.584 16.8499 101.971L8.29584 84.6548C8.08266 84.2239 7.9562 83.7551 7.92369 83.2752C7.89117 82.7952 7.95323 82.3136 8.10633 81.8577C8.25943 81.4018 8.50056 80.9807 8.81596 80.6183C9.13135 80.2559 9.51484 79.9594 9.9445 79.7457L10.8077 79.3301C11.2354 79.1157 11.7013 78.9884 12.1784 78.9557C12.6554 78.923 13.1342 78.9855 13.5871 79.1397C14.5048 79.4506 15.2621 80.1138 15.6932 80.9838L24.2472 98.2997C24.4604 98.7306 24.5869 99.1994 24.6194 99.6794C24.6519 100.159 24.5898 100.641 24.4367 101.097C24.2836 101.553 24.0425 101.974 23.7271 102.336C23.4117 102.699 23.0282 102.995 22.5986 103.209L21.7354 103.624C21.2361 103.873 20.6874 104.006 20.1299 104.014ZM17.6526 101.581C17.9789 102.237 18.5508 102.736 19.2432 102.97C19.9355 103.203 20.692 103.152 21.347 102.828L22.2101 102.412C22.8653 102.087 23.3649 101.514 23.5995 100.819C23.8341 100.124 23.7846 99.3647 23.4617 98.7067L14.9077 81.3907C14.5788 80.7336 14.0051 80.2328 13.3109 79.9968C12.9674 79.8812 12.6046 79.8346 12.2432 79.8599C11.8818 79.8851 11.5289 79.9817 11.2047 80.144L10.3416 80.5596C10.0163 80.7199 9.72596 80.9432 9.4872 81.2166C9.24844 81.49 9.06603 81.8082 8.95047 82.1527C8.83492 82.4972 8.78851 82.8612 8.81394 83.2238C8.83936 83.5864 8.9361 83.9403 9.09859 84.2652L17.6526 101.581Z" fill="#231F20"/>
<path d="M46.6001 77.5796C50.3222 76.839 52.9591 74.3147 52.4898 71.9414C52.0204 69.5681 48.6225 68.2446 44.9004 68.9852C41.1783 69.7258 38.5414 72.2501 39.0107 74.6234C39.4801 76.9966 42.878 78.3202 46.6001 77.5796Z" fill="white"/>
<path d="M123.553 62.6128C127.276 61.8722 129.912 59.3479 129.443 56.9746C128.974 54.6013 125.576 53.2778 121.854 54.0184C118.132 54.759 115.495 57.2833 115.964 59.6566C116.433 62.0298 119.831 63.3534 123.553 62.6128Z" fill="white"/>
<path d="M51.7219 53.9187C51.7219 53.9187 63.5128 48.7239 64.9889 40.8105L51.7219 53.9187Z" fill="#D1CFD5"/>
<path d="M51.7219 55.2177C51.4093 55.2406 51.0989 55.149 50.8485 54.9598C50.5981 54.7706 50.4246 54.4967 50.3603 54.1889C50.296 53.8811 50.3452 53.5604 50.4988 53.2863C50.6523 53.0121 50.8999 52.8032 51.1954 52.6982C51.3076 52.6463 62.4166 47.6506 63.7114 40.5338C63.7431 40.3632 63.808 40.2006 63.9024 40.0552C63.9968 39.9099 64.1188 39.7846 64.2615 39.6865C64.4042 39.5884 64.5647 39.5194 64.7339 39.4836C64.9032 39.4477 65.0778 39.4457 65.2478 39.4775C65.4178 39.5093 65.58 39.5745 65.7249 39.6691C65.8698 39.7638 65.9948 39.8862 66.0925 40.0293C66.1903 40.1724 66.2591 40.3334 66.2948 40.5032C66.3306 40.6729 66.3326 40.8481 66.3009 41.0186C64.7213 49.4688 52.7923 54.8714 52.283 55.0705C52.1105 55.1642 51.918 55.2147 51.7219 55.2177Z" fill="#231F20"/>
<path d="M107.5 43.1737C107.5 43.1737 94.6042 42.862 90.2366 36.1348L107.5 43.1737Z" fill="#D1CFD5"/>
<path d="M107.5 44.4637C106.948 44.4637 93.8791 44.0481 89.2007 36.836C89.0861 36.6967 89.0018 36.5349 88.9531 36.3609C88.9043 36.187 88.8923 36.0048 88.9178 35.826C88.9433 35.6471 89.0057 35.4756 89.101 35.3223C89.1963 35.169 89.3224 35.0374 89.4714 34.9358C89.6203 34.8342 89.7887 34.7649 89.9659 34.7323C90.143 34.6997 90.325 34.7045 90.5002 34.7464C90.6754 34.7884 90.8399 34.8665 90.9833 34.9759C91.1266 35.0852 91.2457 35.2234 91.3328 35.3815C95.2688 41.4421 107.405 41.823 107.534 41.8317C107.878 41.8317 108.207 41.9685 108.45 42.2121C108.693 42.4556 108.829 42.7859 108.829 43.1304C108.829 43.4748 108.693 43.8051 108.45 44.0487C108.207 44.2922 107.878 44.4291 107.534 44.4291L107.5 44.4637Z" fill="#231F20"/>
<path d="M23.0905 78.3086C23.0905 78.3086 22.7797 63.3909 26.241 57.9537C29.7023 52.5165 37.2292 50.4992 35.6064 56.352C33.9837 62.2047 29.5642 69.209 29.5642 69.209C29.5642 69.209 32.8184 81.7198 28.7701 89.1916" fill="white"/>
<path d="M28.7615 89.6413C28.6864 89.6417 28.6124 89.6239 28.5457 89.5894C28.4421 89.5326 28.3649 89.4371 28.331 89.3237C28.2971 89.2103 28.3091 89.088 28.3644 88.9834C32.2832 81.754 29.1585 69.4423 29.124 69.3211C29.1084 69.2615 29.105 69.1993 29.1139 69.1383C29.1228 69.0774 29.1438 69.0188 29.1758 68.9661C29.2276 68.8969 33.5952 61.9445 35.1748 56.2303C35.4683 55.1913 35.5978 53.858 34.6138 53.4164C32.8874 52.6459 28.8478 54.6978 26.6208 58.1956C23.2717 63.451 23.5306 78.1522 23.5306 78.2994C23.5318 78.3574 23.5215 78.4151 23.5005 78.4691C23.4794 78.5231 23.4479 78.5724 23.4078 78.6142C23.3678 78.656 23.3199 78.6895 23.2669 78.7127C23.2139 78.736 23.1569 78.7485 23.0991 78.7496C22.983 78.7497 22.8713 78.7047 22.7876 78.624C22.7039 78.5432 22.6547 78.4331 22.6502 78.3167C22.6502 77.702 22.3826 63.1999 25.8785 57.7194C28.2177 54.0398 32.6457 51.555 34.9849 52.6026C35.6927 52.9143 36.7717 53.8407 36.0466 56.464C34.5447 61.8926 30.7295 68.1696 30.0044 69.2778C30.4187 70.9402 32.991 82.2648 29.1413 89.4076C29.1044 89.4769 29.0498 89.5351 28.983 89.5762C28.9163 89.6173 28.8398 89.6398 28.7615 89.6413Z" fill="#231F20"/>
<path d="M140.594 134.464C140.594 134.464 138.237 147.788 138.004 151.935C137.771 156.083 131.617 172.273 123.659 173.251C115.7 174.23 127.655 165.26 127.474 159.399C127.293 153.537 122.769 158.723 121.069 164.81C119.369 170.896 116.132 164.524 117.616 158.914C119.101 153.303 119.887 153.225 120.37 148.593C120.853 143.961 120.051 129.096 120.051 129.096L140.594 134.464Z" fill="white"/>
<path d="M122.605 173.762C121.587 173.762 120.957 173.52 120.655 173.018C119.981 171.875 121.285 170.039 123.089 167.485C124.893 164.931 127.094 161.823 127.025 159.425C126.973 157.91 126.628 157.33 126.317 157.295C125.281 157.174 122.752 160.395 121.483 164.94C120.75 167.537 119.757 167.892 119.032 167.702C117.306 167.243 116.106 162.845 117.15 158.81C117.746 156.533 118.238 155.139 118.635 154.022C119.315 152.272 119.74 150.432 119.895 148.559C120.37 144.014 119.576 129.278 119.567 129.122C119.563 129.052 119.575 128.983 119.604 128.92C119.632 128.856 119.676 128.801 119.731 128.758C119.785 128.713 119.85 128.681 119.919 128.666C119.988 128.651 120.06 128.653 120.128 128.672L140.706 134.031C140.815 134.06 140.908 134.128 140.969 134.223C141.03 134.317 141.053 134.431 141.034 134.542C141.034 134.672 138.678 147.892 138.445 151.962C138.212 156.031 132.014 172.671 123.71 173.693C123.344 173.739 122.975 173.763 122.605 173.762ZM126.265 156.403H126.421C127.353 156.516 127.854 157.52 127.914 159.39C127.992 162.083 125.773 165.226 123.814 167.996C122.511 169.832 121.043 171.91 121.423 172.55C121.509 172.689 121.889 173.001 123.598 172.793C131.306 171.849 137.331 155.641 137.556 151.901C137.78 148.161 139.679 137.087 140.085 134.784L120.491 129.676C120.637 132.559 121.216 144.507 120.784 148.646C120.615 150.589 120.174 152.498 119.472 154.317C119.084 155.416 118.609 156.784 118.013 159.027C117.038 162.775 118.255 166.559 119.265 166.819C119.593 166.905 120.128 166.394 120.629 164.68C121.751 160.698 124.297 156.403 126.265 156.403Z" fill="#231F20"/>
<path d="M119.779 132.128L142.016 138.171C143.852 138.67 145.743 137.581 146.241 135.74L146.36 135.297C146.858 133.456 145.773 131.558 143.937 131.059L121.7 125.016C119.864 124.517 117.973 125.606 117.476 127.447L117.356 127.89C116.858 129.731 117.943 131.629 119.779 132.128Z" fill="white"/>
<path d="M142.95 138.75C142.606 138.747 142.264 138.7 141.932 138.611L119.679 132.551C118.684 132.279 117.836 131.622 117.323 130.725C116.81 129.827 116.674 128.762 116.943 127.763L117.064 127.321C117.331 126.327 117.979 125.479 118.867 124.962C119.754 124.445 120.809 124.3 121.803 124.559L144.047 130.62C144.539 130.753 145.001 130.983 145.405 131.295C145.809 131.608 146.148 131.997 146.402 132.441C146.656 132.885 146.82 133.374 146.886 133.882C146.951 134.39 146.916 134.905 146.783 135.399L146.662 135.849C146.437 136.675 145.95 137.403 145.273 137.924C144.597 138.445 143.769 138.729 142.916 138.733L142.95 138.75ZM120.819 125.347C120.16 125.349 119.52 125.568 118.998 125.97C118.476 126.372 118.099 126.935 117.927 127.572L117.806 128.014C117.703 128.395 117.675 128.792 117.725 129.184C117.775 129.576 117.902 129.953 118.097 130.296C118.293 130.638 118.554 130.939 118.865 131.18C119.177 131.422 119.533 131.599 119.912 131.702L142.156 137.763C142.536 137.866 142.932 137.894 143.323 137.844C143.713 137.794 144.09 137.667 144.431 137.471C144.773 137.275 145.072 137.013 145.313 136.701C145.553 136.388 145.73 136.031 145.833 135.65L145.954 135.2C146.061 134.815 146.09 134.413 146.04 134.016C145.989 133.62 145.861 133.238 145.661 132.892C145.462 132.546 145.196 132.244 144.879 132.002C144.561 131.761 144.199 131.585 143.813 131.486L121.57 125.425C121.312 125.366 121.048 125.34 120.784 125.347H120.819Z" fill="#231F20"/>
<path d="M85.3251 156.776C85.3251 156.776 60.9665 152.006 60.7679 154.386C60.5694 156.767 61.5621 176.265 61.5621 176.265C61.5621 176.265 38.2565 188.828 41.8473 190.421C45.438 192.014 85.3251 184.62 85.3251 184.62V156.776Z" fill="white"/>
<path d="M43.8669 191.078C43.1243 191.124 42.3793 191.039 41.6659 190.827C41.4866 190.761 41.3305 190.644 41.217 190.49C41.1035 190.336 41.0374 190.152 41.0271 189.961C41.0271 189.407 40.9581 187.961 51.247 181.676C55.606 179.018 60.0255 176.593 61.1044 176.005C60.975 173.511 60.1377 156.611 60.3276 154.36C60.3401 154.24 60.3772 154.125 60.4366 154.02C60.4961 153.916 60.5765 153.825 60.6729 153.754C62.9257 152.022 81.6824 155.615 85.4113 156.351C85.5141 156.369 85.6071 156.424 85.6735 156.505C85.7399 156.586 85.7755 156.688 85.7738 156.793V184.637C85.7738 184.741 85.7376 184.842 85.6715 184.922C85.6053 185.003 85.5134 185.058 85.4113 185.078C81.7515 185.736 52.6368 191.078 43.8669 191.078ZM63.2192 154.143C62.0971 154.143 61.3893 154.247 61.1994 154.472C61.0181 156.758 62.0021 176.048 62.0108 176.247C62.0127 176.331 61.992 176.414 61.951 176.487C61.91 176.56 61.8502 176.621 61.7777 176.663C51.9721 181.953 41.8644 188.359 41.9248 189.927C41.9248 189.927 41.9248 189.978 42.0284 190.013C44.8251 191.26 73.5514 186.333 84.8848 184.247V157.147C76.2703 155.468 67.1898 154.143 63.2192 154.143Z" fill="#231F20"/>
<path d="M88.001 156.776C88.001 156.776 112.36 152.006 112.558 154.386C112.757 156.767 111.764 176.265 111.764 176.265C111.764 176.265 135.07 188.828 131.479 190.421C127.888 192.014 88.001 184.62 88.001 184.62V156.776Z" fill="white"/>
<path d="M129.459 191.077C120.698 191.077 91.5744 185.735 87.9145 185.06C87.8125 185.04 87.7205 184.985 87.6544 184.904C87.5882 184.824 87.5521 184.723 87.552 184.618V156.774C87.5521 156.67 87.5882 156.569 87.6544 156.488C87.7205 156.408 87.8125 156.353 87.9145 156.333C91.6521 155.605 110.357 152.004 112.653 153.735C112.752 153.804 112.834 153.894 112.894 153.999C112.953 154.104 112.989 154.221 112.998 154.341C113.188 156.601 112.351 173.501 112.221 175.986C116.14 178.107 132.402 187.094 132.299 189.943C132.288 190.134 132.222 190.318 132.109 190.472C131.995 190.626 131.839 190.743 131.66 190.809C130.948 191.026 130.203 191.117 129.459 191.077ZM88.4411 184.246C99.7745 186.332 128.501 191.25 131.297 190.012C131.366 190.012 131.41 189.952 131.41 189.926C131.47 188.358 121.362 181.952 111.557 176.662C111.483 176.621 111.422 176.561 111.381 176.487C111.34 176.414 111.32 176.33 111.324 176.246C111.324 176.047 112.308 156.757 112.118 154.428C111.255 153.424 99.4724 154.999 88.4411 157.146V184.246Z" fill="#231F20"/>
<path d="M24.2732 6.31697C22.8489 3.86677 19.5516 3.00963 16.8067 3.71958C14.0619 4.42953 11.7917 6.31697 9.81507 8.34293C9.17025 8.88454 8.73377 9.63462 8.58073 10.4641C8.52894 11.3299 9.32306 12.1957 10.1085 11.9187C6.31922 11.2434 3.20318 14.9057 1.53726 18.3775C0.674092 20.1091 0.00945526 22.1004 0.786308 23.8234C1.56316 25.5463 3.66929 26.4208 5.60279 26.6285C9.28462 27.0212 12.973 25.9486 15.8745 23.6416C17.0285 24.7682 18.4492 25.582 20.003 26.0063C21.5569 26.4306 23.1928 26.4515 24.7569 26.0671C26.321 25.6827 27.762 24.9055 28.9442 23.8087C30.1265 22.712 31.0112 21.3316 31.5152 19.7974C30.7901 20.2563 31.9295 21.1827 32.7754 21.226C34.8384 21.3472 36.9704 21.4597 38.8953 20.6978C43.2629 18.9663 43.7808 8.42085 40.8633 4.98364C37.7731 1.32132 26.2757 1.5118 24.2732 6.31697Z" fill="white"/>
<path d="M7.13916 27.1392C6.60854 27.1405 6.07827 27.1116 5.55093 27.0526C3.00457 26.7669 1.12286 25.65 0.371906 23.9877C-0.491264 22.031 0.311487 19.8492 1.12287 18.1695C1.93425 16.4899 4.42881 11.9964 8.35623 11.425C8.18982 11.1145 8.11216 10.7639 8.1318 10.412C8.28595 9.47675 8.76621 8.62682 9.48698 8.01372C11.2133 6.20421 13.6475 4.0224 16.6858 3.2605C19.2063 2.63713 22.4604 3.2605 24.2213 5.45097C25.2657 3.83193 27.4754 2.6631 30.4189 2.20423C34.2254 1.60683 39.1455 2.25618 41.1912 4.66309C43.0298 6.82758 43.6685 11.7626 42.6413 15.9184C41.9681 18.6024 40.6992 20.4466 39.0506 21.1132C37.0048 21.9184 34.7347 21.7885 32.7408 21.676C32.2669 21.633 31.8148 21.4558 31.4374 21.1652C30.7734 22.5645 29.7922 23.7885 28.5722 24.7393C27.3522 25.6901 25.9273 26.3413 24.4115 26.6408C22.8956 26.9404 21.3309 26.8799 19.8425 26.4643C18.3542 26.0487 16.9834 25.2895 15.8399 24.2474C13.3282 26.1307 10.275 27.1454 7.13916 27.1392ZM9.2194 12.2648C6.11199 12.2648 3.45342 15.4163 1.93424 18.5591C1.20918 20.0656 0.466852 22.0223 1.19192 23.624C2.05509 25.5548 4.6446 26.0483 5.65451 26.1608C9.22118 26.5525 12.7971 25.5094 15.5982 23.2604C15.6798 23.1897 15.7839 23.1508 15.8917 23.1508C15.9995 23.1508 16.1036 23.1897 16.1852 23.2604C17.2391 24.3056 18.534 25.0737 19.9549 25.4965C21.3759 25.9193 22.8789 25.9836 24.3305 25.6838C25.7822 25.384 27.1376 24.7294 28.2765 23.778C29.4154 22.8266 30.3025 21.6079 30.8591 20.2301C30.8369 20.0591 30.8661 19.8853 30.943 19.7311C31.0199 19.5768 31.1409 19.4491 31.2907 19.3643C31.3646 19.3101 31.4537 19.2809 31.5453 19.2809C31.6368 19.2809 31.726 19.3101 31.7999 19.3643C31.8721 19.4194 31.9251 19.4959 31.9514 19.583C31.9777 19.67 31.9761 19.7631 31.9467 19.8492C31.9467 19.9704 31.869 20.0916 31.8258 20.2128C32.0882 20.4834 32.4359 20.6547 32.8098 20.6976C34.7174 20.8102 36.8754 20.9314 38.7398 20.1955C40.1123 19.65 41.1998 18.031 41.7954 15.6327C42.7449 11.8146 42.1752 7.12195 40.5266 5.19123C38.8779 3.2605 34.657 2.48129 30.5656 3.08734C27.5272 3.56353 25.3866 4.81893 24.6874 6.48126C24.656 6.55997 24.6027 6.62795 24.5338 6.67708C24.4649 6.72621 24.3834 6.75441 24.299 6.75832C24.2168 6.76386 24.1346 6.7466 24.0615 6.70842C23.9884 6.67024 23.9273 6.61262 23.8847 6.54187C22.5036 4.16093 19.3271 3.5289 16.9102 4.13496C14.0877 4.83625 11.8089 6.91416 10.1344 8.6371C9.57104 9.10713 9.18186 9.75367 9.0295 10.4726C9.02849 10.6399 9.06616 10.8051 9.13954 10.9553C9.21293 11.1056 9.32004 11.2367 9.45245 11.3384C9.68551 11.3384 9.9272 11.3384 10.1775 11.425C10.2733 11.4418 10.3609 11.4901 10.4264 11.5621C10.492 11.6342 10.532 11.726 10.54 11.8232C10.5479 11.9214 10.5234 12.0194 10.4704 12.1023C10.4174 12.1852 10.3388 12.2483 10.2466 12.2821C9.9081 12.4032 9.53551 12.3845 9.21076 12.2302L9.2194 12.2648Z" fill="#D1D3D4"/>
<path d="M31.351 20.2558C30.8626 20.2477 30.3753 20.2072 29.8922 20.1346C28.1227 19.8749 25.8785 19.1563 25.2397 17.1736C25.2042 17.0611 25.2141 16.939 25.2674 16.8338C25.3207 16.7285 25.413 16.6484 25.5246 16.6108C25.6368 16.5752 25.7584 16.5851 25.8634 16.6386C25.9683 16.692 26.0481 16.7846 26.0856 16.8965C26.6035 18.5242 28.7787 19.0697 30.0217 19.2515C30.9476 19.4379 31.905 19.3933 32.8097 19.1216C33.5364 18.7983 34.1713 18.2984 34.6569 17.6671C35.409 16.7594 35.9936 15.7245 36.3832 14.6108C36.4222 14.496 36.505 14.4014 36.6134 14.3478C36.7219 14.2943 36.8471 14.2861 36.9616 14.3251C37.076 14.3642 37.1704 14.4472 37.2238 14.556C37.2772 14.6648 37.2853 14.7904 37.2464 14.9052C36.8249 16.1229 36.1842 17.2528 35.3561 18.2385C34.7778 18.9943 34.0174 19.5901 33.1464 19.9701C32.571 20.1774 31.962 20.2743 31.351 20.2558Z" fill="#D1D3D4"/>
<path d="M124.582 5.07907C123.151 4.75924 121.652 4.97796 120.371 5.69366C119.09 6.40935 118.115 7.57217 117.633 8.96117C117.15 10.3502 117.193 11.8686 117.753 13.2279C118.314 14.5872 119.352 15.6927 120.672 16.3344C121.358 16.5458 122.005 16.8674 122.588 17.2868C122.971 17.706 123.296 18.1749 123.555 18.6807C125.367 21.5898 129.234 22.75 132.584 22.066C135.933 21.382 138.798 19.1483 141.025 16.5422C140.744 16.8032 140.576 17.1647 140.559 17.5487C140.541 17.9326 140.674 18.3082 140.93 18.5941C141.477 19.1547 142.182 19.5327 142.95 19.6764C145.307 20.3084 147.922 20.5422 150.097 19.4253C151.177 18.9128 152.048 18.0415 152.56 16.9591C153.073 15.8766 153.197 14.6496 152.911 13.4859C153.343 14.9665 155.207 14.3517 155.846 13.6851C156.709 12.8193 156.623 10.3171 156.476 9.23489C156.045 5.89291 152.928 2.3951 149.286 2.68081C148.562 2.82823 147.82 2.86906 147.085 2.80202C145.885 2.54228 145.125 1.3648 144.029 0.802033C143.37 0.514713 142.65 0.398977 141.935 0.465576C141.219 0.532174 140.533 0.778946 139.938 1.18298C138.745 1.99114 137.717 3.01953 136.908 4.21327C136.407 2.98384 134.828 2.68947 133.507 2.70678C130.054 2.75007 128.095 3.46003 125.739 5.70244C125.381 5.44682 124.992 5.23739 124.582 5.07907Z" fill="white"/>
<path d="M130.65 22.7325C129.187 22.7751 127.736 22.4496 126.431 21.7857C125.125 21.1218 124.006 20.1406 123.175 18.9317C123.097 18.8191 123.028 18.6979 122.959 18.5767C122.783 18.1798 122.518 17.8293 122.184 17.5529C121.85 17.2764 121.456 17.0816 121.034 16.9836L120.508 16.7672C119.043 16.1068 117.878 14.9199 117.243 13.4406C116.607 11.9613 116.548 10.2969 117.075 8.77557C117.603 7.25423 118.68 5.98636 120.093 5.22195C121.507 4.45754 123.154 4.25206 124.711 4.64603C125.058 4.76024 125.382 4.93301 125.67 5.15685C127.974 3.06163 129.985 2.33436 133.499 2.29107C135.121 2.29107 136.287 2.67202 136.951 3.45123C137.692 2.4063 138.62 1.50805 139.687 0.801898C140.348 0.35734 141.11 0.0876808 141.902 0.0180433C142.695 -0.0515942 143.492 0.0810529 144.219 0.40363C144.695 0.667794 145.138 0.987472 145.54 1.35601C145.895 1.7947 146.37 2.1195 146.907 2.29029C147.444 2.46108 148.019 2.47038 148.561 2.31704L149.234 2.23912C153.179 1.91878 156.45 5.6417 156.916 9.16549C156.916 9.31268 157.374 12.7759 156.148 13.988C155.814 14.3034 155.412 14.5378 154.974 14.6729C154.535 14.808 154.072 14.8402 153.619 14.7672H153.524C153.493 15.8241 153.173 16.8522 152.599 17.7392C152.025 18.6262 151.22 19.3382 150.27 19.7975C148.293 20.7845 145.781 20.8797 142.812 20.0832C141.973 19.9347 141.199 19.533 140.594 18.9317C140.41 18.702 140.274 18.4368 140.197 18.1525C138.174 20.3317 135.556 21.8645 132.67 22.5594C132.004 22.6855 131.327 22.7435 130.65 22.7325ZM123.227 5.33867C122.063 5.34708 120.928 5.70442 119.968 6.36476C119.009 7.02509 118.268 7.95824 117.841 9.04428C117.434 10.3684 117.514 11.7946 118.065 13.065C118.616 14.3355 119.602 15.3662 120.844 15.9707L121.354 16.1698C121.87 16.3051 122.351 16.5529 122.761 16.8955C123.171 17.2382 123.501 17.6674 123.727 18.1525L123.926 18.4815C125.54 21.0788 129.105 22.3775 132.497 21.6762C135.584 20.8938 138.34 19.14 140.361 16.6719C140.466 16.4871 140.61 16.3275 140.784 16.2044C140.873 16.1462 140.98 16.1218 141.086 16.1355C141.191 16.1493 141.289 16.2003 141.36 16.2794C141.432 16.3585 141.473 16.4606 141.477 16.5674C141.48 16.6742 141.446 16.7788 141.379 16.8624L141.094 17.1828C141.064 17.2577 141.044 17.3363 141.034 17.4165C140.996 17.7448 141.089 18.0749 141.293 18.3343C141.787 18.789 142.401 19.0898 143.062 19.2001C145.816 19.9447 148.121 19.8667 149.89 18.9836C150.88 18.5219 151.679 17.73 152.151 16.7431C152.623 15.7563 152.739 14.6356 152.48 13.5724C152.446 13.4576 152.46 13.3342 152.518 13.2295C152.575 13.1248 152.672 13.0473 152.786 13.014C152.901 12.9807 153.023 12.9943 153.128 13.052C153.232 13.1096 153.31 13.2065 153.343 13.3213C153.368 13.4522 153.431 13.5731 153.523 13.6697C153.614 13.7663 153.732 13.8347 153.861 13.8668C154.164 13.9008 154.471 13.8698 154.761 13.7758C155.051 13.6817 155.318 13.5268 155.544 13.3213C156.174 12.6893 156.217 10.5594 156.045 9.25207C155.639 6.11789 152.678 2.8192 149.329 3.0876L148.699 3.15686C148.033 3.3283 147.332 3.3106 146.675 3.10574C146.018 2.90087 145.431 2.5169 144.979 1.9967C144.633 1.66504 144.251 1.37452 143.839 1.1309C143.245 0.882767 142.6 0.78611 141.959 0.849567C141.319 0.913024 140.705 1.13462 140.171 1.49453C139.038 2.28738 138.063 3.28579 137.297 4.43824C137.248 4.50024 137.185 4.54849 137.112 4.57818C137.039 4.60787 136.96 4.61796 136.883 4.60745C136.805 4.59694 136.731 4.5662 136.669 4.51828C136.607 4.47037 136.558 4.40695 136.528 4.33435C136.079 3.24344 134.457 3.09626 133.55 3.11357C130.141 3.11357 128.32 3.8495 126.067 5.97936C125.995 6.04494 125.905 6.08613 125.809 6.09702C125.713 6.10791 125.616 6.08794 125.531 6.03997L125.178 5.8062C124.973 5.64614 124.746 5.51773 124.504 5.42525C124.084 5.34223 123.655 5.31313 123.227 5.33867Z" fill="#D1D3D4"/>
<path d="M141.923 17.2516C141.635 17.2474 141.346 17.2272 141.06 17.191C139.661 16.9796 138.353 16.3682 137.292 15.4299C136.231 14.4916 135.463 13.2664 135.078 11.901C135.063 11.8447 135.058 11.7859 135.065 11.7279C135.073 11.6699 135.091 11.6139 135.12 11.5632C135.149 11.5124 135.188 11.468 135.234 11.4323C135.28 11.3967 135.333 11.3706 135.389 11.3556C135.503 11.3265 135.625 11.3438 135.726 11.4038C135.828 11.4638 135.902 11.5615 135.933 11.6759C136.253 12.8824 136.922 13.9667 137.856 14.7921C138.79 15.6175 139.947 16.1469 141.18 16.3136C142.414 16.4803 143.669 16.2768 144.788 15.7288C145.906 15.1808 146.838 14.3128 147.465 13.2343C147.494 13.183 147.533 13.1382 147.58 13.1025C147.627 13.0667 147.681 13.0408 147.738 13.0263C147.795 13.0117 147.855 13.0089 147.913 13.0178C147.971 13.0268 148.027 13.0474 148.078 13.0785C148.177 13.1396 148.248 13.2369 148.277 13.35C148.306 13.4631 148.29 13.583 148.233 13.6846C147.574 14.7713 146.647 15.67 145.542 16.2946C144.438 16.9192 143.191 17.2487 141.923 17.2516Z" fill="#D1D3D4"/>
<path d="M123.814 9.86712C123.705 9.24424 123.769 8.6034 123.997 8.01408C124.226 7.42476 124.611 6.90948 125.111 6.5241C125.611 6.13872 126.206 5.89796 126.833 5.82794C127.459 5.75792 128.093 5.8613 128.665 6.12688" fill="white"/>
<path d="M123.814 10.2728C123.709 10.2745 123.608 10.2388 123.527 10.1722C123.446 10.1055 123.392 10.0123 123.374 9.90918C123.248 9.20481 123.318 8.47934 123.575 7.812C123.833 7.14465 124.268 6.5611 124.834 6.12507C125.399 5.68904 126.073 5.4173 126.783 5.33954C127.492 5.26177 128.209 5.38096 128.855 5.6841C128.955 5.73912 129.03 5.83029 129.066 5.93907C129.101 6.04784 129.094 6.16607 129.045 6.26971C128.997 6.37335 128.911 6.45463 128.805 6.49703C128.699 6.53942 128.581 6.53975 128.475 6.49794C127.977 6.26335 127.425 6.17073 126.878 6.23025C126.331 6.28977 125.811 6.49913 125.375 6.83538C124.939 7.17162 124.604 7.62177 124.406 8.13647C124.209 8.65118 124.156 9.21058 124.254 9.75334C124.274 9.87039 124.247 9.99065 124.179 10.088C124.112 10.1853 124.008 10.2517 123.892 10.2728H123.814Z" fill="#D1D3D4"/>
<path d="M16.9794 30.0227C16.9772 29.9086 16.931 29.7998 16.8505 29.7191C16.7701 29.6384 16.6616 29.5921 16.5478 29.5898C16.4333 29.5898 16.3236 29.6355 16.2426 29.7166C16.1617 29.7978 16.1162 29.9079 16.1162 30.0227C16.2629 31.3301 16.4183 32.6201 16.5651 33.9448C16.5673 34.0589 16.6135 34.1677 16.6939 34.2485C16.7744 34.3292 16.8829 34.3755 16.9966 34.3777C17.1104 34.3755 17.2189 34.3292 17.2994 34.2485C17.3798 34.1677 17.426 34.0589 17.4282 33.9448C17.2815 32.6374 17.1261 31.3301 16.9794 30.0227Z" fill="#D1D3D4"/>
<path d="M25.5593 35.6769C25.5309 35.6275 25.4932 35.5841 25.4481 35.5493C25.4031 35.5145 25.3516 35.4889 25.2967 35.474C25.2418 35.4591 25.1845 35.4553 25.1281 35.4626C25.0717 35.4699 25.0173 35.4883 24.968 35.5168C24.9187 35.5452 24.8755 35.5831 24.8407 35.6283C24.806 35.6734 24.7805 35.725 24.7657 35.7801C24.7509 35.8352 24.747 35.8927 24.7543 35.9492C24.7616 36.0058 24.78 36.0604 24.8083 36.1098C24.9199 36.2733 25.0153 36.4472 25.0932 36.6293V36.6986V36.8025C25.0932 36.8977 25.1622 36.9929 25.1881 37.0882C25.2416 37.2697 25.282 37.4549 25.309 37.6423V37.7202C25.309 37.7202 25.309 37.7981 25.309 37.8328C25.309 37.8674 25.309 38.0492 25.309 38.1531C25.309 38.2679 25.3544 38.378 25.4354 38.4592C25.5163 38.5404 25.6261 38.586 25.7406 38.586C25.855 38.586 25.9648 38.5404 26.0457 38.4592C26.1267 38.378 26.1721 38.2679 26.1721 38.1531C26.1936 37.2874 25.9819 36.432 25.5593 35.6769Z" fill="#D1D3D4"/>
<path d="M32.4644 32.1874C32.3522 31.538 32.2486 30.8887 32.1364 30.2394C32.1061 30.1295 32.0338 30.036 31.9353 29.9793C31.8367 29.9226 31.7198 29.9071 31.6099 29.9363C31.5009 29.9705 31.409 30.045 31.3529 30.1447C31.2968 30.2445 31.2806 30.3619 31.3078 30.4731C31.4114 31.1225 31.5236 31.7718 31.6272 32.4212C31.6594 32.5317 31.7333 32.6252 31.8333 32.6818C31.9333 32.7384 32.0513 32.7536 32.1623 32.7242C32.2713 32.69 32.3632 32.6155 32.4193 32.5158C32.4755 32.4161 32.4916 32.2986 32.4644 32.1874Z" fill="#D1D3D4"/>
<path d="M132.256 29.9184L131.6 27.6414C131.585 27.5845 131.559 27.5311 131.524 27.4843C131.489 27.4374 131.444 27.398 131.394 27.3682C131.343 27.3385 131.288 27.319 131.23 27.3109C131.172 27.3028 131.113 27.3063 131.056 27.321C130.999 27.3358 130.946 27.3616 130.899 27.3971C130.853 27.4325 130.813 27.4768 130.784 27.5274C130.754 27.5781 130.735 27.6341 130.726 27.6922C130.718 27.7504 130.722 27.8096 130.737 27.8665L131.384 30.1435C131.414 30.2583 131.488 30.3566 131.59 30.4167C131.692 30.4767 131.813 30.4937 131.928 30.4639C132.042 30.434 132.14 30.3598 132.2 30.2575C132.26 30.1552 132.277 30.0332 132.247 29.9184H132.256Z" fill="#D1D3D4"/>
<path d="M141.224 32.5254C141.11 32.5276 141.002 32.5739 140.921 32.6546C140.841 32.7353 140.795 32.8442 140.792 32.9583V35.5557C140.792 35.6705 140.838 35.7806 140.919 35.8618C141 35.943 141.11 35.9886 141.224 35.9886C141.338 35.9864 141.446 35.94 141.527 35.8593C141.607 35.7786 141.653 35.6698 141.656 35.5557V32.9583C141.653 32.8442 141.607 32.7353 141.527 32.6546C141.446 32.5739 141.338 32.5276 141.224 32.5254Z" fill="#D1D3D4"/>
<path d="M149.795 32.9583C149.791 32.8448 149.744 32.7372 149.664 32.6569C149.584 32.5767 149.477 32.5297 149.364 32.5254C149.148 32.5254 148.898 32.7245 148.932 32.9583L149.424 36.8717C149.424 36.9865 149.47 37.0966 149.551 37.1778C149.632 37.259 149.741 37.3046 149.856 37.3046C149.97 37.3046 150.08 37.259 150.161 37.1778C150.242 37.0966 150.287 36.9865 150.287 36.8717L149.795 32.9583Z" fill="#D1D3D4"/>
<path d="M145.756 52.0312C145.642 52.0335 145.533 52.0798 145.453 52.1605C145.372 52.2412 145.326 52.35 145.324 52.4641V54.0832C145.324 54.198 145.369 54.3081 145.45 54.3893C145.531 54.4705 145.641 54.5161 145.756 54.5161C145.87 54.5161 145.98 54.4705 146.061 54.3893C146.142 54.3081 146.187 54.198 146.187 54.0832V52.4641C146.187 52.3493 146.142 52.2392 146.061 52.158C145.98 52.0769 145.87 52.0312 145.756 52.0312Z" fill="#D1D3D4"/>
<path d="M154.62 61.1135C154.292 60.0312 153.973 58.949 153.645 57.8667C153.611 57.7574 153.537 57.6652 153.437 57.6089C153.338 57.5526 153.221 57.5365 153.11 57.5637C153.002 57.5959 152.911 57.6692 152.856 57.7679C152.801 57.8665 152.787 57.9828 152.816 58.0918C153.136 59.1827 153.464 60.265 153.792 61.3472C153.807 61.4041 153.833 61.4573 153.869 61.504C153.905 61.5506 153.95 61.5898 154 61.6191C154.051 61.6484 154.108 61.6674 154.166 61.675C154.224 61.6826 154.283 61.6786 154.34 61.6632C154.396 61.6479 154.45 61.6215 154.496 61.5856C154.543 61.5496 154.582 61.5048 154.611 61.4538C154.64 61.4027 154.659 61.3464 154.667 61.288C154.674 61.2296 154.67 61.1703 154.655 61.1135H154.62Z" fill="#D1D3D4"/>
<path d="M10.6781 40.1184C10.6759 40.0043 10.6297 39.8955 10.5493 39.8148C10.4688 39.7341 10.3603 39.6878 10.2465 39.6855C10.1321 39.6855 10.0223 39.7312 9.94135 39.8123C9.86041 39.8935 9.81494 40.0036 9.81494 40.1184C9.91852 41.0881 10.0221 42.0665 10.1343 43.0448C10.1343 43.1596 10.1798 43.2698 10.2607 43.3509C10.3417 43.4321 10.4514 43.4777 10.5659 43.4777C10.6797 43.4755 10.7882 43.4292 10.8686 43.3485C10.9491 43.2678 10.9953 43.159 10.9975 43.0448C10.8853 42.0665 10.7817 41.0881 10.6781 40.1184Z" fill="#D1D3D4"/>
<path d="M14.9076 58.854C14.5804 57.6182 14.4925 56.3308 14.6487 55.0618C14.6487 54.947 14.6032 54.8369 14.5222 54.7557C14.4413 54.6745 14.3315 54.6289 14.2171 54.6289C14.1026 54.6289 13.9928 54.6745 13.9119 54.7557C13.831 54.8369 13.7855 54.947 13.7855 55.0618C13.625 56.4098 13.7217 57.776 14.0703 59.0878C14.1012 59.1991 14.175 59.2936 14.2753 59.3504C14.3757 59.4073 14.4945 59.4218 14.6055 59.3908C14.7165 59.3598 14.8107 59.2858 14.8674 59.1851C14.924 59.0845 14.9385 58.9654 14.9076 58.854Z" fill="#D1D3D4"/>
<path d="M19.3788 43.9004C19.2651 43.9026 19.1566 43.9489 19.0761 44.0296C18.9957 44.1103 18.9495 44.2192 18.9473 44.3333V46.2813C18.9473 46.3961 18.9927 46.5062 19.0737 46.5874C19.1546 46.6686 19.2644 46.7142 19.3788 46.7142C19.4933 46.7142 19.6031 46.6686 19.684 46.5874C19.765 46.5062 19.8104 46.3961 19.8104 46.2813V44.3333C19.8082 44.2192 19.762 44.1103 19.6816 44.0296C19.6011 43.9489 19.4926 43.9026 19.3788 43.9004Z" fill="#D1D3D4"/>
</svg>
