<svg width="55" height="18" viewBox="0 0 55 18" fill="none" xmlns="http://www.w3.org/2000/svg">
<path fill-rule="evenodd" clip-rule="evenodd" d="M40.0258 0.758197L39.3853 4.49291C37.4648 3.42538 33.0941 3.1728 33.0941 5.13854C33.0941 5.91965 34.083 6.45684 35.2749 7.10431C37.0826 8.08625 39.3572 9.32183 39.3572 12.0465C39.3572 16.3999 34.7365 18 31.6743 18C28.6122 18 26.6082 17.0176 26.6082 17.0176L27.2759 13.1136C29.1129 14.6016 34.6807 15.024 34.6807 12.6647C34.6807 11.6734 33.5848 11.0888 32.314 10.4108C30.5603 9.47521 28.4734 8.36185 28.4734 5.75673C28.4734 0.982402 33.7622 0 35.9893 0C38.0495 0 40.0258 0.758197 40.0258 0.758197ZM50.8791 17.7004H55L51.4071 0.31071H47.799C46.133 0.31071 45.7273 1.60662 45.7273 1.60662L39.0344 17.7004H43.7123L44.6478 15.1174H50.353L50.8791 17.7004ZM45.9408 11.5493L48.2988 5.04177L49.6254 11.5493H45.9408ZM11.3011 12.2717L15.5796 0.311192H20.4097L13.2695 17.7009H8.59352L4.69446 2.5937C2.16348 1.05962 0 0.605634 0 0.605634L0.0829981 0.311192H7.15627C9.10257 0.311192 9.28517 1.87736 9.28517 1.87736L10.7953 9.69704L10.7948 9.69611L11.3011 12.2717ZM19.3551 17.7004H23.843L26.6484 0.311192H22.16L19.3551 17.7004Z" fill="#1A1F71"/>
</svg>
